<svg width="657" height="348" viewBox="0 0 657 348" fill="none" xmlns="http://www.w3.org/2000/svg">
<g clip-path="url(#clip0_124_1436)">
<path d="M205.417 43.2464C208.034 43.2464 210.155 41.0668 210.155 38.3781C210.155 35.6894 208.034 33.5098 205.417 33.5098C202.8 33.5098 200.678 35.6894 200.678 38.3781C200.678 41.0668 202.8 43.2464 205.417 43.2464Z" fill="#F2F2F2"/>
<path d="M186.532 43.2464C189.149 43.2464 191.271 41.0668 191.271 38.3781C191.271 35.6894 189.149 33.5098 186.532 33.5098C183.915 33.5098 181.794 35.6894 181.794 38.3781C181.794 41.0668 183.915 43.2464 186.532 43.2464Z" fill="#F2F2F2"/>
<path d="M167.648 43.2464C170.265 43.2464 172.386 41.0668 172.386 38.3781C172.386 35.6894 170.265 33.5098 167.648 33.5098C165.031 33.5098 162.91 35.6894 162.91 38.3781C162.91 41.0668 165.031 43.2464 167.648 43.2464Z" fill="#F2F2F2"/>
<path d="M148.764 43.2464C151.381 43.2464 153.502 41.0668 153.502 38.3781C153.502 35.6894 151.381 33.5098 148.764 33.5098C146.147 33.5098 144.026 35.6894 144.026 38.3781C144.026 41.0668 146.147 43.2464 148.764 43.2464Z" fill="#F2F2F2"/>
<path d="M205.417 63.5721C208.034 63.5721 210.155 61.3925 210.155 58.7038C210.155 56.0151 208.034 53.8355 205.417 53.8355C202.8 53.8355 200.678 56.0151 200.678 58.7038C200.678 61.3925 202.8 63.5721 205.417 63.5721Z" fill="#F2F2F2"/>
<path d="M186.532 63.5721C189.149 63.5721 191.271 61.3925 191.271 58.7038C191.271 56.0151 189.149 53.8355 186.532 53.8355C183.915 53.8355 181.794 56.0151 181.794 58.7038C181.794 61.3925 183.915 63.5721 186.532 63.5721Z" fill="#F2F2F2"/>
<path d="M167.648 63.5721C170.265 63.5721 172.386 61.3925 172.386 58.7038C172.386 56.0151 170.265 53.8355 167.648 53.8355C165.031 53.8355 162.91 56.0151 162.91 58.7038C162.91 61.3925 165.031 63.5721 167.648 63.5721Z" fill="#F2F2F2"/>
<path d="M148.764 63.5721C151.381 63.5721 153.502 61.3925 153.502 58.7038C153.502 56.0151 151.381 53.8355 148.764 53.8355C146.147 53.8355 144.026 56.0151 144.026 58.7038C144.026 61.3925 146.147 63.5721 148.764 63.5721Z" fill="#F2F2F2"/>
<path d="M205.417 83.8979C208.034 83.8979 210.155 81.7182 210.155 79.0296C210.155 76.3409 208.034 74.1613 205.417 74.1613C202.8 74.1613 200.678 76.3409 200.678 79.0296C200.678 81.7182 202.8 83.8979 205.417 83.8979Z" fill="#F2F2F2"/>
<path d="M186.532 83.8979C189.149 83.8979 191.271 81.7182 191.271 79.0296C191.271 76.3409 189.149 74.1613 186.532 74.1613C183.915 74.1613 181.794 76.3409 181.794 79.0296C181.794 81.7182 183.915 83.8979 186.532 83.8979Z" fill="#F2F2F2"/>
<path d="M167.648 83.8979C170.265 83.8979 172.386 81.7182 172.386 79.0296C172.386 76.3409 170.265 74.1613 167.648 74.1613C165.031 74.1613 162.91 76.3409 162.91 79.0296C162.91 81.7182 165.031 83.8979 167.648 83.8979Z" fill="#F2F2F2"/>
<path d="M148.764 83.8979C151.381 83.8979 153.502 81.7182 153.502 79.0296C153.502 76.3409 151.381 74.1613 148.764 74.1613C146.147 74.1613 144.026 76.3409 144.026 79.0296C144.026 81.7182 146.147 83.8979 148.764 83.8979Z" fill="#F2F2F2"/>
<path d="M205.417 104.224C208.034 104.224 210.155 102.044 210.155 99.3552C210.155 96.6665 208.034 94.4869 205.417 94.4869C202.8 94.4869 200.678 96.6665 200.678 99.3552C200.678 102.044 202.8 104.224 205.417 104.224Z" fill="#F2F2F2"/>
<path d="M186.532 104.224C189.149 104.224 191.271 102.044 191.271 99.3552C191.271 96.6665 189.149 94.4869 186.532 94.4869C183.915 94.4869 181.794 96.6665 181.794 99.3552C181.794 102.044 183.915 104.224 186.532 104.224Z" fill="#F2F2F2"/>
<path d="M167.648 104.224C170.265 104.224 172.386 102.044 172.386 99.3552C172.386 96.6665 170.265 94.4869 167.648 94.4869C165.031 94.4869 162.91 96.6665 162.91 99.3552C162.91 102.044 165.031 104.224 167.648 104.224Z" fill="#F2F2F2"/>
<path d="M148.764 104.224C151.381 104.224 153.502 102.044 153.502 99.3552C153.502 96.6665 151.381 94.4869 148.764 94.4869C146.147 94.4869 144.026 96.6665 144.026 99.3552C144.026 102.044 146.147 104.224 148.764 104.224Z" fill="#F2F2F2"/>
<path d="M205.417 124.549C208.034 124.549 210.155 122.37 210.155 119.681C210.155 116.992 208.034 114.813 205.417 114.813C202.8 114.813 200.678 116.992 200.678 119.681C200.678 122.37 202.8 124.549 205.417 124.549Z" fill="#F2F2F2"/>
<path d="M186.532 124.549C189.149 124.549 191.271 122.37 191.271 119.681C191.271 116.992 189.149 114.813 186.532 114.813C183.915 114.813 181.794 116.992 181.794 119.681C181.794 122.37 183.915 124.549 186.532 124.549Z" fill="#F2F2F2"/>
<path d="M167.648 124.549C170.265 124.549 172.386 122.37 172.386 119.681C172.386 116.992 170.265 114.813 167.648 114.813C165.031 114.813 162.91 116.992 162.91 119.681C162.91 122.37 165.031 124.549 167.648 124.549Z" fill="#F2F2F2"/>
<path d="M148.764 124.549C151.381 124.549 153.502 122.37 153.502 119.681C153.502 116.992 151.381 114.813 148.764 114.813C146.147 114.813 144.026 116.992 144.026 119.681C144.026 122.37 146.147 124.549 148.764 124.549Z" fill="#F2F2F2"/>
<path d="M205.417 144.875C208.034 144.875 210.155 142.695 210.155 140.007C210.155 137.318 208.034 135.138 205.417 135.138C202.8 135.138 200.678 137.318 200.678 140.007C200.678 142.695 202.8 144.875 205.417 144.875Z" fill="#F2F2F2"/>
<path d="M186.532 144.875C189.149 144.875 191.271 142.695 191.271 140.007C191.271 137.318 189.149 135.138 186.532 135.138C183.915 135.138 181.794 137.318 181.794 140.007C181.794 142.695 183.915 144.875 186.532 144.875Z" fill="#F2F2F2"/>
<path d="M167.648 144.875C170.265 144.875 172.386 142.695 172.386 140.007C172.386 137.318 170.265 135.138 167.648 135.138C165.031 135.138 162.91 137.318 162.91 140.007C162.91 142.695 165.031 144.875 167.648 144.875Z" fill="#F2F2F2"/>
<path d="M148.764 144.875C151.381 144.875 153.502 142.695 153.502 140.007C153.502 137.318 151.381 135.138 148.764 135.138C146.147 135.138 144.026 137.318 144.026 140.007C144.026 142.695 146.147 144.875 148.764 144.875Z" fill="#F2F2F2"/>
<path d="M163.781 272.816V274.322C163.783 276.817 164.748 279.209 166.465 280.973C168.183 282.737 170.511 283.73 172.939 283.732H238.883C241.312 283.731 243.641 282.739 245.358 280.975C247.076 279.21 248.041 276.817 248.042 274.322V272.816C248.046 270.614 247.294 268.481 245.917 266.794C245.458 266.233 244.94 265.728 244.371 265.288C244.371 265.288 208.116 264.445 208.116 263.406H172.939C170.511 263.409 168.184 264.402 166.467 266.166C164.75 267.93 163.784 270.321 163.781 272.816Z" fill="#CCCCCC"/>
<path d="M211.204 283.358H201.679V346.593H211.204V283.358Z" fill="#CCCCCC"/>
<path d="M238.314 346.25C238.314 347.307 223.88 346.659 206.075 346.659C188.27 346.659 173.836 347.307 173.836 346.25C173.836 345.192 188.27 336.807 206.075 336.807C223.88 336.807 238.314 345.192 238.314 346.25Z" fill="#CCCCCC"/>
<path d="M225.218 271.539C225.906 270.591 226.383 269.5 226.616 268.342C226.848 267.184 226.831 265.988 226.565 264.837C226.299 263.687 225.791 262.611 225.076 261.684C224.362 260.758 223.458 260.003 222.429 259.474L202.241 188.797L186.868 196.532L211.546 263.573C210.796 265.409 210.727 267.463 211.352 269.347C211.977 271.231 213.253 272.814 214.939 273.796C216.624 274.778 218.601 275.09 220.496 274.674C222.39 274.258 224.071 273.143 225.218 271.539L225.218 271.539Z" fill="#A0616A"/>
<path d="M206.814 200.6L189.608 205.386C189.119 205.522 188.607 205.548 188.106 205.462C187.606 205.377 187.13 205.181 186.709 204.889C186.289 204.597 185.935 204.216 185.672 203.771C185.408 203.326 185.241 202.827 185.181 202.31L183.102 184.177C182.438 181.599 182.796 178.857 184.097 176.55C185.399 174.244 187.537 172.562 190.044 171.873C192.55 171.184 195.221 171.544 197.469 172.874C199.718 174.205 201.361 176.397 202.039 178.971L209.127 195.65C209.33 196.128 209.43 196.644 209.421 197.165C209.412 197.686 209.293 198.199 209.074 198.669C208.854 199.139 208.539 199.554 208.149 199.888C207.759 200.221 207.304 200.464 206.814 200.6H206.814Z" fill="#FF5300"/>
<path d="M229.715 338.838L238.698 338.837L242.972 314.901H229.714L229.715 338.838Z" fill="#A0616A"/>
<path d="M227.424 335.825L245.114 335.824H245.115C246.595 335.824 248.061 336.123 249.429 336.705C250.797 337.287 252.04 338.141 253.087 339.216C254.134 340.292 254.964 341.569 255.531 342.974C256.097 344.379 256.389 345.885 256.389 347.407V347.783L227.424 347.784L227.424 335.825Z" fill="#2F2E41"/>
<path d="M240.142 326.002C240.037 326.002 239.932 325.997 239.827 325.987L227.395 325.057C226.893 325.009 226.407 324.843 225.977 324.572C225.546 324.3 225.182 323.931 224.912 323.493C224.643 323.054 224.475 322.558 224.421 322.042C224.368 321.526 224.43 321.005 224.604 320.518L241.241 282.114C241.36 281.771 241.409 281.407 241.384 281.045C241.359 280.682 241.262 280.329 241.098 280.007C240.934 279.681 240.705 279.394 240.426 279.166C240.146 278.938 239.823 278.773 239.477 278.682C231.654 276.581 211.582 270.986 194.206 264.44C186.762 261.636 182.073 257.583 180.271 252.394C177.895 245.553 181.41 239.315 181.561 239.053L181.679 238.848L198.029 240.375L215.754 241.924L254.597 263.324C257.852 265.133 260.324 268.134 261.522 271.732C262.719 275.329 262.554 279.257 261.059 282.735L243.151 323.994C242.892 324.592 242.469 325.099 241.936 325.456C241.402 325.812 240.779 326.002 240.142 326.002Z" fill="#2F2E41"/>
<path d="M200.872 164.395C210.811 164.395 218.868 156.117 218.868 145.905C218.868 135.694 210.811 127.416 200.872 127.416C190.933 127.416 182.876 135.694 182.876 145.905C182.876 156.117 190.933 164.395 200.872 164.395Z" fill="#A0616A"/>
<path d="M224.586 338.085L233.569 338.084L237.843 314.148H224.585L224.586 338.085Z" fill="#A0616A"/>
<path d="M222.295 335.072L239.985 335.071H239.986C241.466 335.071 242.932 335.371 244.3 335.953C245.668 336.535 246.911 337.388 247.958 338.463C249.005 339.539 249.835 340.816 250.402 342.221C250.968 343.626 251.26 345.133 251.26 346.654V347.03L222.295 347.031L222.295 335.072Z" fill="#2F2E41"/>
<path d="M235.013 328.26C234.908 328.26 234.803 328.255 234.698 328.245L222.266 327.315C221.763 327.267 221.278 327.101 220.848 326.83C220.417 326.559 220.053 326.19 219.783 325.751C219.514 325.313 219.346 324.816 219.292 324.301C219.239 323.785 219.301 323.263 219.475 322.776L236.112 284.372C236.231 284.03 236.28 283.666 236.255 283.303C236.23 282.94 236.133 282.587 235.969 282.265C235.805 281.939 235.576 281.653 235.296 281.424C235.017 281.196 234.694 281.031 234.348 280.94C226.525 278.839 206.453 273.245 189.077 266.699C181.633 263.894 176.944 259.841 175.142 254.652C172.766 247.812 176.281 241.573 176.432 241.311L176.55 241.106L192.9 242.633L210.625 244.182L249.468 265.583C252.723 267.391 255.195 270.393 256.393 273.99C257.59 277.587 257.425 281.516 255.93 284.993L238.022 326.253C237.762 326.85 237.34 327.358 236.807 327.714C236.273 328.07 235.65 328.26 235.013 328.26Z" fill="#2F2E41"/>
<path d="M206.422 174.879L187.372 168.104C187.372 168.104 175.412 177.544 181.157 200.963C184.157 213.048 183.283 225.804 178.666 237.339C178.11 238.766 177.469 240.156 176.747 241.503C176.747 241.503 197.996 267.851 217.779 248.278L210.085 210.261C210.085 210.261 222.175 185.042 206.422 174.879Z" fill="#2F2E41"/>
<path d="M203.106 165.024C200.545 161.085 198.523 155.623 201.343 151.875C204.127 148.176 209.617 148.721 213.88 147.084C219.818 144.804 223.262 137.637 222.188 131.218C221.114 124.8 216.099 119.479 210.125 117.302C204.15 115.125 197.413 115.833 191.563 118.34C184.361 121.426 178.183 127.396 175.592 134.959C173.002 142.521 174.387 151.602 179.761 157.415C185.523 163.647 194.566 165.307 202.931 165.207" fill="#2F2E41"/>
<path d="M186.366 131.424C183.138 134.124 178.214 132.925 174.75 130.556C171.285 128.187 168.474 124.813 164.726 122.956C158.117 119.681 150.127 121.858 143.696 125.485C137.264 129.112 131.563 134.124 124.769 136.97C117.975 139.816 109.306 139.957 104.162 134.582C102.896 138.351 102.792 142.429 103.866 146.26C104.939 150.091 107.136 153.488 110.158 155.989C113.18 158.49 116.879 159.971 120.751 160.232C124.623 160.493 128.479 159.52 131.792 157.446C139.236 152.788 143.348 143.02 151.697 140.448C156.317 139.025 161.278 140.171 165.947 141.413C170.617 142.654 175.486 143.995 180.198 142.938C184.91 141.882 189.318 137.531 188.718 132.614L186.366 131.424Z" fill="#2F2E41"/>
<path d="M244.949 305.643C243.043 292.927 243.043 279.986 244.949 267.269C245.07 266.512 245.448 265.824 246.016 265.327C246.585 264.83 247.307 264.556 248.053 264.555H277.268C277.742 264.553 278.209 264.663 278.635 264.875C279.061 265.087 279.434 265.396 279.726 265.779C280.025 266.167 280.234 266.62 280.336 267.103C280.439 267.586 280.432 268.087 280.318 268.568C277.585 280.328 277.585 292.584 280.318 304.345C280.432 304.825 280.439 305.326 280.336 305.809C280.234 306.293 280.025 306.746 279.726 307.134C279.434 307.516 279.061 307.826 278.635 308.038C278.209 308.25 277.742 308.359 277.268 308.358H248.053C247.307 308.356 246.585 308.083 246.016 307.585C245.448 307.088 245.07 306.4 244.949 305.643Z" fill="#FF5300"/>
<path d="M268.278 283.131H252.947C252.364 283.131 251.805 282.892 251.393 282.469C250.981 282.046 250.749 281.472 250.749 280.873V279.991C250.749 279.392 250.981 278.818 251.393 278.394C251.805 277.971 252.364 277.733 252.947 277.732H268.278C268.86 277.733 269.419 277.971 269.831 278.394C270.243 278.818 270.475 279.392 270.476 279.991V280.873C270.475 281.472 270.243 282.046 269.831 282.469C269.419 282.892 268.86 283.131 268.278 283.131Z" fill="white"/>
<path d="M268.278 292.424H252.947C252.364 292.424 251.805 292.186 251.393 291.762C250.981 291.339 250.749 290.765 250.749 290.166V289.283C250.749 288.685 250.981 288.111 251.393 287.687C251.805 287.264 252.364 287.026 252.947 287.025H268.278C268.86 287.026 269.419 287.264 269.831 287.687C270.243 288.111 270.475 288.685 270.476 289.283V290.166C270.475 290.765 270.243 291.339 269.831 291.762C269.419 292.186 268.86 292.424 268.278 292.424Z" fill="white"/>
<path d="M252.631 268.152C253.066 267.058 253.263 265.878 253.207 264.697C253.15 263.517 252.843 262.363 252.306 261.317C251.768 260.272 251.015 259.36 250.097 258.646C249.18 257.932 248.121 257.434 246.996 257.186L210.262 193.932L197.258 205.368L237.456 263.949C237.175 265.918 237.608 267.925 238.671 269.589C239.735 271.252 241.356 272.458 243.226 272.976C245.097 273.494 247.087 273.289 248.821 272.4C250.554 271.511 251.91 269.999 252.631 268.152L252.631 268.152Z" fill="#A0616A"/>
<path d="M217.561 204.187L202.064 213.237C201.623 213.495 201.133 213.651 200.628 213.697C200.123 213.742 199.614 213.675 199.136 213.501C198.658 213.326 198.223 213.047 197.859 212.684C197.496 212.321 197.213 211.881 197.029 211.395L190.606 194.371C189.337 192.046 189.017 189.299 189.716 186.731C190.415 184.164 192.077 181.986 194.336 180.676C196.596 179.365 199.269 179.028 201.77 179.739C204.271 180.451 206.395 182.152 207.677 184.469L218.596 198.8C218.909 199.21 219.131 199.685 219.249 200.192C219.367 200.699 219.377 201.226 219.279 201.737C219.181 202.248 218.976 202.732 218.68 203.154C218.383 203.577 218.001 203.929 217.561 204.187Z" fill="#2F2E41"/>
<path d="M382.449 226.406H84.9699C83.7068 226.406 82.4954 226.921 81.6022 227.839C80.709 228.756 80.2073 230.001 80.2073 231.299C80.2073 232.597 80.709 233.841 81.6022 234.759C82.4954 235.676 83.7068 236.192 84.9699 236.192H93.396V342.714C93.396 344.012 93.8978 345.256 94.7909 346.174C95.6841 347.091 96.8955 347.607 98.1586 347.607C99.4217 347.607 100.633 347.091 101.526 346.174C102.419 345.256 102.921 344.012 102.921 342.714V245.595L156.314 345.023C156.947 346.144 157.987 346.962 159.206 347.296C160.425 347.63 161.723 347.454 162.815 346.806C163.908 346.158 164.705 345.091 165.033 343.839C165.361 342.588 165.192 341.254 164.563 340.13L108.749 236.192H363.765V236.255L307.985 340.13C307.353 341.254 307.182 342.59 307.509 343.843C307.836 345.097 308.634 346.165 309.728 346.814C310.822 347.463 312.121 347.639 313.341 347.303C314.562 346.967 315.602 346.147 316.233 345.023L363.765 256.51V342.714C363.765 344.012 364.267 345.256 365.16 346.174C366.053 347.091 367.264 347.607 368.527 347.607C369.791 347.607 371.002 347.091 371.895 346.174C372.788 345.256 373.29 344.012 373.29 342.714V238.772L374.676 236.192H382.449C383.712 236.192 384.923 235.676 385.816 234.759C386.71 233.841 387.211 232.597 387.211 231.299C387.211 230.001 386.71 228.756 385.816 227.839C384.923 226.921 383.712 226.406 382.449 226.406Z" fill="#3F3D56"/>
<path d="M259.354 223.394H201.47C200.054 223.394 198.906 224.574 198.906 226.029C198.906 227.484 200.054 228.664 201.47 228.664H259.354C260.771 228.664 261.919 227.484 261.919 226.029C261.919 224.574 260.771 223.394 259.354 223.394Z" fill="#CCCCCC"/>
<path d="M298.188 228.664H232.977C231.714 228.662 230.503 228.146 229.611 227.229C228.718 226.312 228.216 225.068 228.214 223.771V186.883C228.216 185.586 228.718 184.342 229.611 183.425C230.503 182.508 231.714 181.992 232.977 181.99H298.188C299.45 181.992 300.661 182.508 301.554 183.425C302.447 184.342 302.949 185.586 302.95 186.883V223.771C302.949 225.068 302.447 226.312 301.554 227.229C300.661 228.146 299.45 228.662 298.188 228.664Z" fill="#CCCCCC"/>
<path d="M265.582 209.844C268.01 209.844 269.978 207.822 269.978 205.327C269.978 202.832 268.01 200.81 265.582 200.81C263.154 200.81 261.186 202.832 261.186 205.327C261.186 207.822 263.154 209.844 265.582 209.844Z" fill="white"/>
<path d="M347.954 137.779V5.66216C347.955 4.16098 348.536 2.72178 349.57 1.66029C350.603 0.598799 352.004 0.00170754 353.465 0H455.112C456.573 0.00170754 457.974 0.598799 459.007 1.66029C460.04 2.72178 460.621 4.16098 460.623 5.66216V137.779C460.621 139.28 460.04 140.72 459.007 141.781C457.974 142.843 456.573 143.44 455.112 143.441H353.465C352.004 143.44 350.603 142.843 349.57 141.781C348.536 140.72 347.955 139.28 347.954 137.779ZM353.465 1.25826C352.328 1.25957 351.239 1.72397 350.435 2.54958C349.632 3.37519 349.18 4.49457 349.178 5.66216V137.779C349.18 138.947 349.632 140.066 350.435 140.892C351.239 141.717 352.328 142.182 353.465 142.183H455.112C456.248 142.182 457.338 141.717 458.141 140.892C458.945 140.066 459.397 138.947 459.398 137.779V5.66216C459.397 4.49457 458.945 3.37519 458.141 2.54958C457.338 1.72397 456.248 1.25957 455.112 1.25826H353.465Z" fill="#E6E6E6"/>
<path d="M409.988 60.6743V33.5465C409.989 32.7959 410.28 32.0763 410.796 31.5455C411.313 31.0148 412.013 30.7162 412.744 30.7154H435.118C435.849 30.7162 436.549 31.0148 437.066 31.5455C437.583 32.0763 437.873 32.7959 437.874 33.5465V60.6743C437.873 61.4249 437.583 62.1445 437.066 62.6753C436.549 63.206 435.849 63.5045 435.118 63.5054H412.744C412.013 63.5045 411.313 63.206 410.796 62.6753C410.28 62.1445 409.989 61.4249 409.988 60.6743Z" fill="#FF5300"/>
<path d="M366.513 73.2569V46.1291C366.513 45.3785 366.804 44.6589 367.321 44.1281C367.837 43.5974 368.538 43.2988 369.268 43.298H391.643C392.373 43.2988 393.074 43.5974 393.59 44.1281C394.107 44.6589 394.397 45.3785 394.398 46.1291V73.2569C394.397 74.0075 394.107 74.7271 393.59 75.2579C393.074 75.7886 392.373 76.0871 391.643 76.088H369.268C368.538 76.0871 367.837 75.7886 367.321 75.2579C366.804 74.7271 366.513 74.0075 366.513 73.2569Z" fill="#CCCCCC"/>
<path d="M401.416 111.634V84.5059C401.416 83.7553 401.707 83.0357 402.224 82.5049C402.74 81.9742 403.441 81.6756 404.171 81.6748H426.546C427.276 81.6756 427.977 81.9742 428.493 82.5049C429.01 83.0357 429.301 83.7553 429.301 84.5059V111.634C429.301 112.384 429.01 113.104 428.493 113.635C427.977 114.165 427.276 114.464 426.546 114.465H404.171C403.441 114.464 402.74 114.165 402.224 113.635C401.707 113.104 401.416 112.384 401.416 111.634Z" fill="#FF6584"/>
<path d="M572.054 13.7666C574.671 13.7666 576.793 11.587 576.793 8.89833C576.793 6.20964 574.671 4.03003 572.054 4.03003C569.437 4.03003 567.316 6.20964 567.316 8.89833C567.316 11.587 569.437 13.7666 572.054 13.7666Z" fill="#F2F2F2"/>
<path d="M572.054 33.1689C574.671 33.1689 576.793 30.9893 576.793 28.3006C576.793 25.6119 574.671 23.4323 572.054 23.4323C569.437 23.4323 567.316 25.6119 567.316 28.3006C567.316 30.9893 569.437 33.1689 572.054 33.1689Z" fill="#F2F2F2"/>
<path d="M572.054 52.5711C574.671 52.5711 576.793 50.3915 576.793 47.7028C576.793 45.0141 574.671 42.8345 572.054 42.8345C569.437 42.8345 567.316 45.0141 567.316 47.7028C567.316 50.3915 569.437 52.5711 572.054 52.5711Z" fill="#F2F2F2"/>
<path d="M572.054 71.9734C574.671 71.9734 576.793 69.7937 576.793 67.1051C576.793 64.4164 574.671 62.2368 572.054 62.2368C569.437 62.2368 567.316 64.4164 567.316 67.1051C567.316 69.7937 569.437 71.9734 572.054 71.9734Z" fill="#F2F2F2"/>
<path d="M552.271 13.7666C554.888 13.7666 557.01 11.587 557.01 8.89833C557.01 6.20964 554.888 4.03003 552.271 4.03003C549.654 4.03003 547.533 6.20964 547.533 8.89833C547.533 11.587 549.654 13.7666 552.271 13.7666Z" fill="#F2F2F2"/>
<path d="M552.271 33.1689C554.888 33.1689 557.01 30.9893 557.01 28.3006C557.01 25.6119 554.888 23.4323 552.271 23.4323C549.654 23.4323 547.533 25.6119 547.533 28.3006C547.533 30.9893 549.654 33.1689 552.271 33.1689Z" fill="#F2F2F2"/>
<path d="M552.271 52.5711C554.888 52.5711 557.01 50.3915 557.01 47.7028C557.01 45.0141 554.888 42.8345 552.271 42.8345C549.654 42.8345 547.533 45.0141 547.533 47.7028C547.533 50.3915 549.654 52.5711 552.271 52.5711Z" fill="#F2F2F2"/>
<path d="M552.271 71.9734C554.888 71.9734 557.01 69.7937 557.01 67.1051C557.01 64.4164 554.888 62.2368 552.271 62.2368C549.654 62.2368 547.533 64.4164 547.533 67.1051C547.533 69.7937 549.654 71.9734 552.271 71.9734Z" fill="#F2F2F2"/>
<path d="M532.488 13.7666C535.105 13.7666 537.226 11.587 537.226 8.89833C537.226 6.20964 535.105 4.03003 532.488 4.03003C529.871 4.03003 527.75 6.20964 527.75 8.89833C527.75 11.587 529.871 13.7666 532.488 13.7666Z" fill="#F2F2F2"/>
<path d="M532.488 33.1689C535.105 33.1689 537.226 30.9893 537.226 28.3006C537.226 25.6119 535.105 23.4323 532.488 23.4323C529.871 23.4323 527.75 25.6119 527.75 28.3006C527.75 30.9893 529.871 33.1689 532.488 33.1689Z" fill="#F2F2F2"/>
<path d="M532.488 52.5711C535.105 52.5711 537.226 50.3915 537.226 47.7028C537.226 45.0141 535.105 42.8345 532.488 42.8345C529.871 42.8345 527.75 45.0141 527.75 47.7028C527.75 50.3915 529.871 52.5711 532.488 52.5711Z" fill="#F2F2F2"/>
<path d="M532.488 71.9734C535.105 71.9734 537.226 69.7937 537.226 67.1051C537.226 64.4164 535.105 62.2368 532.488 62.2368C529.871 62.2368 527.75 64.4164 527.75 67.1051C527.75 69.7937 529.871 71.9734 532.488 71.9734Z" fill="#F2F2F2"/>
<path d="M512.705 13.7666C515.322 13.7666 517.443 11.587 517.443 8.89833C517.443 6.20964 515.322 4.03003 512.705 4.03003C510.088 4.03003 507.967 6.20964 507.967 8.89833C507.967 11.587 510.088 13.7666 512.705 13.7666Z" fill="#F2F2F2"/>
<path d="M512.705 33.1689C515.322 33.1689 517.443 30.9893 517.443 28.3006C517.443 25.6119 515.322 23.4323 512.705 23.4323C510.088 23.4323 507.967 25.6119 507.967 28.3006C507.967 30.9893 510.088 33.1689 512.705 33.1689Z" fill="#F2F2F2"/>
<path d="M512.705 52.5711C515.322 52.5711 517.443 50.3915 517.443 47.7028C517.443 45.0141 515.322 42.8345 512.705 42.8345C510.088 42.8345 507.967 45.0141 507.967 47.7028C507.967 50.3915 510.088 52.5711 512.705 52.5711Z" fill="#F2F2F2"/>
<path d="M512.705 71.9734C515.322 71.9734 517.443 69.7937 517.443 67.1051C517.443 64.4164 515.322 62.2368 512.705 62.2368C510.088 62.2368 507.967 64.4164 507.967 67.1051C507.967 69.7937 510.088 71.9734 512.705 71.9734Z" fill="#F2F2F2"/>
<path d="M492.922 13.7666C495.539 13.7666 497.66 11.587 497.66 8.89833C497.66 6.20964 495.539 4.03003 492.922 4.03003C490.305 4.03003 488.184 6.20964 488.184 8.89833C488.184 11.587 490.305 13.7666 492.922 13.7666Z" fill="#F2F2F2"/>
<path d="M492.922 33.1689C495.539 33.1689 497.66 30.9893 497.66 28.3006C497.66 25.6119 495.539 23.4323 492.922 23.4323C490.305 23.4323 488.184 25.6119 488.184 28.3006C488.184 30.9893 490.305 33.1689 492.922 33.1689Z" fill="#F2F2F2"/>
<path d="M492.922 52.5711C495.539 52.5711 497.66 50.3915 497.66 47.7028C497.66 45.0141 495.539 42.8345 492.922 42.8345C490.305 42.8345 488.184 45.0141 488.184 47.7028C488.184 50.3915 490.305 52.5711 492.922 52.5711Z" fill="#F2F2F2"/>
<path d="M492.922 71.9734C495.539 71.9734 497.66 69.7937 497.66 67.1051C497.66 64.4164 495.539 62.2368 492.922 62.2368C490.305 62.2368 488.184 64.4164 488.184 67.1051C488.184 69.7937 490.305 71.9734 492.922 71.9734Z" fill="#F2F2F2"/>
<path d="M473.139 13.7666C475.756 13.7666 477.877 11.587 477.877 8.89833C477.877 6.20964 475.756 4.03003 473.139 4.03003C470.522 4.03003 468.401 6.20964 468.401 8.89833C468.401 11.587 470.522 13.7666 473.139 13.7666Z" fill="#F2F2F2"/>
<path d="M473.139 33.1689C475.756 33.1689 477.877 30.9893 477.877 28.3006C477.877 25.6119 475.756 23.4323 473.139 23.4323C470.522 23.4323 468.401 25.6119 468.401 28.3006C468.401 30.9893 470.522 33.1689 473.139 33.1689Z" fill="#F2F2F2"/>
<path d="M473.139 52.5711C475.756 52.5711 477.877 50.3915 477.877 47.7028C477.877 45.0141 475.756 42.8345 473.139 42.8345C470.522 42.8345 468.401 45.0141 468.401 47.7028C468.401 50.3915 470.522 52.5711 473.139 52.5711Z" fill="#F2F2F2"/>
<path d="M473.139 71.9734C475.756 71.9734 477.877 69.7937 477.877 67.1051C477.877 64.4164 475.756 62.2368 473.139 62.2368C470.522 62.2368 468.401 64.4164 468.401 67.1051C468.401 69.7937 470.522 71.9734 473.139 71.9734Z" fill="#F2F2F2"/>
<path d="M492.229 181.616C491.84 180.519 491.681 179.351 491.763 178.187C491.844 177.023 492.164 175.89 492.701 174.862C493.239 173.834 493.981 172.934 494.881 172.222C495.78 171.509 496.816 171 497.92 170.727C498.27 170.643 498.625 170.583 498.983 170.549L516.79 138.481L512.294 130.545L523.486 121.673L532.049 133.893C533.07 135.361 533.603 137.13 533.569 138.934C533.534 140.739 532.935 142.484 531.858 143.911L507.412 176.066C507.501 176.322 507.577 176.582 507.639 176.845C507.905 177.98 507.933 179.16 507.724 180.307C507.514 181.454 507.071 182.542 506.424 183.501C505.776 184.46 504.939 185.267 503.967 185.87C502.994 186.473 501.909 186.858 500.781 187C500.454 187.043 500.125 187.064 499.795 187.064C498.143 187.059 496.532 186.534 495.18 185.56C493.827 184.585 492.797 183.209 492.229 181.616Z" fill="#FFB8B8"/>
<path d="M457.487 339.43L448.504 339.43L444.231 303.831L457.489 303.832L457.487 339.43Z" fill="#FFB8B8"/>
<path d="M442.088 336.792H459.412V347.999H431.181C431.181 346.528 431.463 345.07 432.011 343.711C432.559 342.351 433.362 341.116 434.375 340.075C435.388 339.034 436.591 338.209 437.914 337.646C439.237 337.082 440.656 336.792 442.088 336.792Z" fill="#2F2E41"/>
<path d="M531.491 339.43L522.508 339.43L518.235 303.831L531.492 303.832L531.491 339.43Z" fill="#FFB8B8"/>
<path d="M516.092 336.792H533.416V347.999H505.184C505.184 346.528 505.466 345.07 506.014 343.711C506.562 342.351 507.366 341.116 508.379 340.075C509.391 339.034 510.594 338.209 511.917 337.646C513.241 337.082 514.659 336.792 516.092 336.792Z" fill="#2F2E41"/>
<path d="M525.977 123.406L505.81 131.28L500.886 117.228C500.232 115.362 500.241 113.319 500.912 111.459C501.583 109.599 502.872 108.043 504.551 107.066C506.25 106.076 508.237 105.744 510.153 106.129C512.07 106.513 513.789 107.589 515.001 109.162L525.977 123.406Z" fill="#FF5300"/>
<path d="M458.263 310.598L441.349 306.635C440.449 306.422 439.661 305.868 439.143 305.083C438.625 304.299 438.415 303.342 438.556 302.404C445.343 258.208 451.872 232.325 468.699 199.457C468.934 198.844 471.562 186.405 473.277 178.163C473.257 177.255 473.559 176.371 474.127 175.675C474.696 174.979 475.49 174.52 476.364 174.381L507.903 169.394C508.379 169.225 508.881 169.147 509.384 169.165L509.699 169.227L509.695 169.546C509.692 169.875 509.372 169.925 509.253 169.944L508.833 170.011C509.312 170.239 509.751 170.546 510.134 170.919C523.952 187.995 531.138 243.971 540.265 305.81C540.315 306.312 540.256 306.819 540.091 307.294C539.925 307.769 539.658 308.2 539.31 308.556C538.979 308.926 538.579 309.224 538.134 309.431C537.688 309.638 537.206 309.75 536.718 309.76L516.567 310.265C515.682 310.285 514.82 309.975 514.141 309.39C513.462 308.806 513.013 307.989 512.878 307.09L499.305 226.503C499.212 225.873 498.925 225.291 498.487 224.84C498.049 224.39 497.483 224.094 496.87 223.997C496.258 223.9 495.631 224.006 495.081 224.301C494.532 224.595 494.088 225.061 493.814 225.633C482.864 248.544 472.653 268.358 462.596 307.889C462.396 308.69 461.943 309.401 461.307 309.909C460.672 310.417 459.89 310.693 459.084 310.694C458.808 310.694 458.532 310.662 458.263 310.598Z" fill="#2F2E41"/>
<path d="M474.681 179.084C474.256 178.775 473.901 178.378 473.638 177.917C473.374 177.456 473.21 176.943 473.154 176.412C470.571 151.638 472.37 132.25 478.654 117.14C479.761 114.534 481.428 112.22 483.53 110.371C485.633 108.522 488.116 107.187 490.792 106.466L507.095 105.62L507.179 105.662C510.858 107.514 513.858 110.534 515.735 114.275C517.611 118.016 518.265 122.278 517.598 126.431C512.354 140.631 507.964 155.416 511.312 167.343C511.453 167.842 511.493 168.364 511.433 168.88C511.372 169.395 511.21 169.892 510.958 170.342C510.713 170.776 510.384 171.155 509.991 171.454C509.599 171.753 509.151 171.966 508.675 172.08L477.624 179.669C477.121 179.792 476.598 179.803 476.091 179.702C475.583 179.602 475.103 179.391 474.681 179.084Z" fill="#FF5300"/>
<path d="M467.663 143.531L436.395 118.187C436.146 118.277 435.893 118.354 435.636 118.417C434.533 118.682 433.387 118.706 432.274 118.487C431.161 118.267 430.105 117.81 429.175 117.144C428.239 116.477 427.453 115.613 426.868 114.609C426.284 113.605 425.915 112.484 425.786 111.322C425.576 109.464 425.984 107.587 426.942 105.997C427.901 104.406 429.355 103.196 431.068 102.561C432.137 102.167 433.275 102.009 434.407 102.099C435.539 102.188 436.641 102.522 437.639 103.079C438.636 103.636 439.509 104.403 440.198 105.331C440.887 106.258 441.378 107.325 441.638 108.461C441.718 108.821 441.774 109.186 441.806 109.554L472.932 128.003L480.678 123.421L489.259 134.963L477.232 143.77C475.824 144.793 474.133 145.322 472.409 145.279C470.685 145.236 469.021 144.623 467.663 143.531H467.663Z" fill="#FFB8B8"/>
<path d="M493.074 138.558L475.234 126.093L483.618 113.893C484.731 112.273 486.366 111.109 488.234 110.608C490.101 110.106 492.081 110.299 493.824 111.152C495.586 112.016 496.99 113.498 497.782 115.332C498.574 117.165 498.702 119.23 498.142 121.152L493.074 138.558Z" fill="#FF5300"/>
<path d="M501.654 99.3644C511.593 99.3644 519.65 91.0863 519.65 80.8748C519.65 70.6632 511.593 62.3851 501.654 62.3851C491.715 62.3851 483.658 70.6632 483.658 80.8748C483.658 91.0863 491.715 99.3644 501.654 99.3644Z" fill="#FFB8B8"/>
<path d="M495.056 78.1209C490.431 81.3734 484.358 84.7167 479.634 81.2531C476.532 78.9788 475.554 74.7674 476.812 71.0715C479.074 64.4253 485.289 61.4994 491.232 59.2566C498.958 56.3409 507.371 54.0214 515.346 56.1095C523.322 58.1975 530.371 66.1315 528.931 74.4575C527.773 81.1531 521.626 86.7244 522.499 93.4655C523.377 100.25 530.803 103.821 537.359 105.033C543.915 106.246 551.252 106.636 555.963 111.474C561.974 117.646 560.473 128.678 554.817 135.194C549.162 141.711 540.627 144.665 532.357 146.673C521.4 149.333 509.548 150.732 499.142 146.316C488.735 141.901 480.637 130.015 483.651 118.869C484.925 114.161 487.925 110.182 490.824 106.309C493.723 102.435 496.658 98.3849 497.764 93.6326C498.686 89.6723 498.003 85.0742 495.447 82.1035C494.982 81.5835 494.69 80.9256 494.612 80.2241C494.533 79.5226 494.673 78.8137 495.012 78.1991L495.056 78.1209Z" fill="#2F2E41"/>
</g>
<defs>
<clipPath id="clip0_124_1436">
<rect width="657" height="348" fill="white"/>
</clipPath>
</defs>
</svg>
