<svg width="104" height="109" viewBox="0 0 104 109" fill="none" xmlns="http://www.w3.org/2000/svg">
<path d="M17.7391 44.0936C17.01 43.7647 16.1507 43.668 15.1678 43.8034C14.1848 43.9389 13.3255 44.2743 12.5964 44.8096C11.8673 45.3385 11.301 46.0287 10.9039 46.8801C10.5068 47.7315 10.305 48.6926 10.2985 49.7633C10.2985 50.8405 10.4938 51.75 10.8844 52.4982C11.2749 53.2464 11.8413 53.7882 12.5704 54.1107C13.2995 54.4397 14.1653 54.5365 15.1482 54.401C16.1377 54.2656 16.9905 53.9302 17.7261 53.3948C18.4552 52.8659 19.015 52.1692 19.4056 51.3114C19.7962 50.4535 19.9915 49.486 19.9915 48.4152C19.9915 47.3445 19.8027 46.4351 19.4121 45.6933C19.0281 44.958 18.4682 44.4226 17.7391 44.0936ZM16.8603 51.2598C16.4502 51.8726 15.8773 52.2273 15.1548 52.324C14.4322 52.4272 13.8658 52.2273 13.4622 51.7371C13.0586 51.2469 12.8568 50.4664 12.8568 49.4021C12.8568 48.3443 13.0651 47.5187 13.4752 46.9253C13.8853 46.3254 14.4517 45.9771 15.1743 45.8739C15.8969 45.7707 16.4697 45.9707 16.8798 46.4544C17.2899 46.9446 17.4917 47.7122 17.4917 48.7571C17.4787 49.8214 17.2704 50.6535 16.8603 51.2598Z" fill="#D7D7D7"/>
<path d="M28.9099 48.4216C28.6951 48.241 28.4477 48.1378 28.1808 48.1185C28.8123 47.8153 29.307 47.3896 29.6585 46.8284C30.01 46.2737 30.1793 45.648 30.1858 44.9514C30.1858 43.9516 29.8929 43.2292 29.307 42.7712C28.7211 42.3197 27.8423 42.1714 26.6771 42.3326L22.1853 42.9583L22.1658 53.2979L24.6786 52.9496L24.6851 48.9247L25.6095 48.7957C26.1433 48.7183 26.4818 48.8667 26.625 49.2343L27.8683 52.4981L30.5699 52.124L29.4372 49.2021C29.3005 48.8667 29.1247 48.6086 28.9099 48.4216ZM27.4322 46.2414C27.1848 46.4543 26.7942 46.6026 26.2539 46.6736L24.6525 46.8994L24.659 44.6805L26.2604 44.4547C26.8138 44.3773 27.2109 44.4096 27.4452 44.5515C27.6861 44.6934 27.8033 44.9643 27.8033 45.3578C27.8033 45.7319 27.6796 46.0286 27.4322 46.2414Z" fill="#D7D7D7"/>
<path d="M37.0666 47.2281L38.7462 46.9959L38.7396 48.9116C38.3165 49.0664 37.8869 49.1761 37.4637 49.2341C36.5524 49.3631 35.8753 49.189 35.4392 48.7181C35.003 48.2473 34.7817 47.4603 34.7817 46.3573C34.7817 45.2931 34.9965 44.4739 35.4197 43.8934C35.8428 43.3193 36.4808 42.971 37.3401 42.8485C37.8088 42.7839 38.2514 42.7904 38.6615 42.8743C39.0716 42.9581 39.5013 43.1258 39.944 43.3709L40.7512 41.3262C40.3606 41.0424 39.8593 40.8489 39.2409 40.7393C38.6225 40.6296 37.965 40.6232 37.2684 40.7264C36.2529 40.8683 35.3676 41.2037 34.606 41.7455C33.8443 42.2809 33.2584 42.9775 32.8353 43.8353C32.4187 44.6932 32.2104 45.6543 32.2039 46.7185C32.2039 47.8151 32.4057 48.731 32.8223 49.4728C33.2389 50.2145 33.8313 50.7435 34.606 51.0595C35.3806 51.3756 36.292 51.4659 37.3401 51.3175C38.0106 51.2272 38.6615 51.066 39.2995 50.8402C39.9374 50.6145 40.5168 50.3435 41.0311 50.021L41.0376 44.8351L37.0601 45.3898L37.0666 47.2281Z" fill="#D7D7D7"/>
<path d="M46.6946 39.546L42.1572 50.5113L44.709 50.1565L45.5683 47.9054L49.8583 47.3056L50.7111 49.318L53.2238 48.9697L48.706 39.2622L46.6946 39.546ZM46.3951 45.7446L47.7165 42.2938L49.025 45.377L46.3951 45.7446Z" fill="#D7D7D7"/>
<path d="M56.8368 42.6035L61.2114 47.8604L63.0992 47.596L63.1187 37.2563L60.7166 37.5918L60.7036 43.4292L56.329 38.2045L54.4737 38.4625L54.4542 48.8021L56.8303 48.4667L56.8368 42.6035Z" fill="#D7D7D7"/>
<path d="M68.0987 36.5659L65.5469 36.9207L65.5273 47.2603L68.0792 46.9055L68.0987 36.5659Z" fill="#D7D7D7"/>
<path d="M78.4688 44.4547L77.7006 42.6293C76.9129 43.3453 76.0992 43.7645 75.253 43.8871C74.4718 43.9967 73.8794 43.8097 73.4628 43.3388C73.0461 42.8615 72.8378 42.1068 72.8443 41.0619C72.8443 40.0234 73.0526 39.2172 73.4758 38.6302C73.8924 38.0432 74.4913 37.6949 75.2659 37.5917C76.1057 37.4756 76.9194 37.6691 77.7071 38.1658L78.4883 36.1275C78.1302 35.8308 77.6485 35.618 77.0561 35.4954C76.4637 35.3793 75.8519 35.36 75.2139 35.4503C74.2114 35.5922 73.3326 35.934 72.5839 36.4758C71.8353 37.0176 71.2625 37.7207 70.8589 38.5721C70.4553 39.43 70.2535 40.3782 70.2469 41.4231C70.2469 42.4809 70.4487 43.3775 70.8458 44.1257C71.2494 44.874 71.8223 45.4157 72.5644 45.7512C73.3065 46.0866 74.1853 46.1833 75.1878 46.0479C75.8193 45.9576 76.4377 45.7705 77.0301 45.4867C77.629 45.1965 78.1042 44.8546 78.4688 44.4547Z" fill="#D7D7D7"/>
<path d="M29.3395 57.1549C28.7341 56.6711 27.8813 56.5099 26.7746 56.6647L22.1722 57.3032L22.1527 67.6428L24.7045 67.2881L24.711 63.2503L26.7616 62.9665C27.8488 62.8181 28.7015 62.4117 29.3135 61.7538C29.9319 61.0959 30.2378 60.2896 30.2378 59.3286C30.2508 58.361 29.9449 57.6386 29.3395 57.1549ZM26.4296 60.9798L24.7176 61.2185L24.7241 59.0125L26.4361 58.7739C26.9309 58.7029 27.2954 58.7481 27.5298 58.9093C27.7576 59.0641 27.8748 59.3286 27.8748 59.6962C27.8683 60.4122 27.3931 60.8444 26.4296 60.9798Z" fill="#D7D7D7"/>
<path d="M38.8894 61.3797C38.6746 61.1991 38.4272 61.0959 38.1603 61.0765C38.7917 60.7734 39.2865 60.3477 39.638 59.7865C39.9895 59.2318 40.1653 58.6061 40.1653 57.9031C40.1653 56.9097 39.8724 56.1809 39.2865 55.7229C38.7006 55.2649 37.8218 55.1231 36.6565 55.2843L32.1648 55.91L32.1453 66.2496L34.658 65.9012L34.6645 61.8763L35.589 61.7473C36.1228 61.6699 36.4613 61.8183 36.6045 62.186L37.8478 65.4562L40.5494 65.0821L39.4167 62.1602C39.28 61.8183 39.1042 61.5603 38.8894 61.3797ZM37.4117 59.1931C37.1643 59.406 36.7737 59.5478 36.2269 59.6253L34.6255 59.851L34.632 57.6322L36.2334 57.4064C36.7867 57.329 37.1839 57.3613 37.4182 57.5032C37.6591 57.6451 37.7762 57.916 37.7762 58.3094C37.7827 58.69 37.6591 58.9802 37.4117 59.1931Z" fill="#D7D7D7"/>
<path d="M49.6304 53.9945C48.9013 53.6656 48.0486 53.5688 47.0591 53.7043C46.0696 53.8397 45.2168 54.1751 44.4812 54.7105C43.7521 55.2394 43.1858 55.9296 42.7887 56.781C42.3851 57.6324 42.1897 58.5935 42.1832 59.6642C42.1832 60.7414 42.3785 61.6509 42.7691 62.3991C43.1597 63.1473 43.7261 63.6891 44.4552 64.0116C45.1843 64.3406 46.05 64.4374 47.033 64.3019C48.0225 64.1664 48.8753 63.831 49.6044 63.2957C50.3335 62.7668 50.8933 62.0702 51.2839 61.2123C51.6745 60.3544 51.8698 59.3869 51.8763 58.3162C51.8763 57.2454 51.6875 56.3359 51.2969 55.5942C50.9193 54.8589 50.3595 54.3235 49.6304 53.9945ZM48.7516 61.1671C48.335 61.7799 47.7686 62.1346 47.046 62.2314C46.3235 62.3346 45.7571 62.1346 45.3535 61.6444C44.9434 61.1542 44.7481 60.3738 44.7481 59.3095C44.7481 58.2516 44.9564 57.426 45.3665 56.8326C45.7766 56.2327 46.343 55.8844 47.0656 55.7812C47.7881 55.678 48.3545 55.878 48.7711 56.3617C49.1813 56.852 49.3831 57.6195 49.3831 58.6645C49.37 59.7223 49.1617 60.5544 48.7516 61.1671Z" fill="#D7D7D7"/>
<path d="M60.7752 52.5431C60.0005 52.24 59.0826 52.1626 58.015 52.3109L54.0636 52.8592L54.0441 63.1988L57.9955 62.6505C59.0696 62.5022 59.994 62.1667 60.7752 61.6443C61.5498 61.1218 62.1422 60.4445 62.5523 59.6125C62.9624 58.7739 63.1643 57.8193 63.1708 56.7486C63.1708 55.6843 62.969 54.7942 62.5588 54.0783C62.1422 53.3558 61.5498 52.8463 60.7752 52.5431ZM59.9354 59.4577C59.4667 60.0188 58.7636 60.3672 57.8197 60.4962L56.5959 60.6638L56.6089 54.6846L57.8328 54.5169C59.7076 54.2589 60.6385 55.1167 60.6385 57.1034C60.6385 58.1096 60.4041 58.8901 59.9354 59.4577Z" fill="#D7D7D7"/>
<path d="M71.3601 56.5359C71.3601 57.2712 71.2039 57.8646 70.8914 58.3033C70.5854 58.7483 70.1427 59.0128 69.5764 59.0902C68.997 59.174 68.5544 59.0321 68.2419 58.6838C67.9294 58.329 67.7797 57.7808 67.7797 57.0326L67.7927 50.9501L65.306 51.2984L65.293 57.2777C65.293 58.7483 65.651 59.8126 66.3736 60.477C67.0962 61.1349 68.1638 61.3671 69.5764 61.1671C70.963 60.9736 72.0241 60.4383 72.7597 59.5675C73.5018 58.6967 73.8729 57.5357 73.8729 56.0779L73.8859 50.0986L71.3731 50.447L71.3601 56.5359Z" fill="#D7D7D7"/>
<path d="M80.9815 51.1304C81.8212 51.0143 82.6349 51.2013 83.4226 51.7044L84.2038 49.6662C83.8458 49.3695 83.364 49.1566 82.7716 49.0341C82.1792 48.9115 81.5673 48.8986 80.9294 48.9889C79.9269 49.1308 79.0481 49.4727 78.2994 50.0145C77.5508 50.5628 76.9779 51.2594 76.5743 52.1108C76.1707 52.9687 75.9689 53.9168 75.9624 54.9618C75.9624 56.0196 76.1642 56.9162 76.5613 57.6644C76.9649 58.4126 77.5378 58.9544 78.2799 59.2898C79.0285 59.6252 79.9008 59.7284 80.9033 59.5865C81.5348 59.4962 82.1532 59.3092 82.7456 59.0254C83.338 58.7415 83.8197 58.3997 84.1777 57.9998L83.4096 56.1744C82.6219 56.8904 81.8082 57.3096 80.9619 57.4322C80.1807 57.5418 79.5883 57.3548 79.1717 56.8839C78.7551 56.4066 78.5468 55.6519 78.5533 54.607C78.5533 53.5685 78.7616 52.7623 79.1847 52.1753C79.6079 51.5883 80.2003 51.24 80.9815 51.1304Z" fill="#D7D7D7"/>
<path d="M85.369 48.5053V50.7112L88.2463 50.3113L88.2268 58.4385L90.8047 58.0837L90.8242 49.9501L93.7015 49.5502L93.708 47.3442L85.369 48.5053Z" fill="#D7D7D7"/>
<path d="M52.7943 96.7527C54.259 93.5985 57.0712 91.1733 60.2479 89.7026C63.4247 88.232 66.953 87.6515 70.4553 87.4902C70.2274 91.7086 69.9605 96.0883 67.8969 99.7842C66.1002 102.996 59.7988 108.434 55.7302 108.144C55.6065 108.137 55.4828 108.118 55.3656 108.099C56.9605 104.345 59.3561 100.932 62.3701 98.1523C62.7933 97.7653 62.8193 97.1074 62.4222 96.6882C62.0316 96.2689 61.3676 96.2431 60.9445 96.6366C57.7482 99.5843 55.1964 103.196 53.4908 107.176C51.1083 104.893 51.6551 99.2037 52.7943 96.7527Z" fill="#D7D7D7"/>
<path d="M45.7311 92.8888C48.2699 95.6947 51.5704 103.396 50.0536 106.97C49.8779 107.382 49.6435 107.724 49.3701 108.002C45.64 104.641 42.7757 100.281 41.2199 95.5399C41.0376 94.998 40.4517 94.6949 39.8984 94.8755C39.3516 95.0497 39.0456 95.6366 39.2279 96.1849C40.8097 100.99 43.6415 105.434 47.3325 108.95C44.3315 109.363 39.983 107.15 38.2058 105.441C35.6215 102.958 34.1503 99.5196 33.7076 96.1075C33.2649 92.6953 33.7792 89.2832 34.6971 86.0581C38.681 87.8061 42.8148 89.6638 45.7311 92.8888Z" fill="#D7D7D7"/>
<path d="M80.9099 93.9401C80.3045 93.9401 79.7121 93.6563 79.3345 93.1339C78.7161 92.2695 78.9244 91.0763 79.7967 90.47C85.9549 86.1483 91.0716 80.3819 94.5869 73.7834C98.2193 66.972 100.14 59.277 100.14 51.5174C100.14 38.7784 95.1337 26.8004 86.0396 17.7896C76.9454 8.77868 64.8568 3.81848 52 3.81848C39.1432 3.81848 27.0546 8.77868 17.9605 17.7896C8.86632 26.8004 3.86029 38.7784 3.86029 51.5174C3.86029 59.277 5.78068 66.972 9.41313 73.7834C12.9349 80.3755 18.0451 86.1483 24.2033 90.47C25.0756 91.0827 25.2774 92.276 24.6655 93.1339C24.0471 93.9982 22.8428 94.1982 21.977 93.5919C15.3305 88.9284 9.80373 82.6975 6.00202 75.5765C2.07664 68.2169 0 59.9026 0 51.5239C0 37.7592 5.40963 24.8202 15.2329 15.0934C25.0561 5.3601 38.1147 0 52 0C65.8918 0 78.9504 5.3601 88.7672 15.0934C98.5904 24.8267 104 37.7657 104 51.5239C104 59.9026 101.923 68.2169 97.998 75.5765C94.1963 82.6975 88.676 88.9284 82.023 93.5919C81.691 93.8241 81.3005 93.9401 80.9099 93.9401Z" fill="#D7D7D7"/>
<path d="M77.8698 25.0203C78.3451 24.9558 78.7291 25.3105 78.7291 25.8201C78.7291 26.3296 78.3451 26.794 77.8698 26.8585L23.0186 34.4955C22.5434 34.56 22.1593 34.2053 22.1593 33.6957C22.1593 33.1861 22.5434 32.7217 23.0186 32.6572L77.8698 25.0203Z" fill="#D7D7D7"/>
<path d="M77.8698 67.1526C78.3451 67.0881 78.7291 67.4429 78.7291 67.9524C78.7291 68.462 78.3451 68.9264 77.8698 68.9909L23.0186 76.6279C22.5434 76.6924 22.1593 76.3376 22.1593 75.8281C22.1593 75.3185 22.5434 74.8541 23.0186 74.7896L77.8698 67.1526Z" fill="#D7D7D7"/>
</svg>
