<svg width="139" height="109" viewBox="0 0 139 109" fill="none" xmlns="http://www.w3.org/2000/svg">
<path d="M18.215 40.7674C20.6025 32.0191 25.2733 23.9967 31.9413 17.4195C41.9726 7.51504 55.3086 2.06183 69.4968 2.06183C83.685 2.06183 97.021 7.51504 107.052 17.4195C113.714 23.9967 118.391 32.0191 120.779 40.7674H122.932C120.499 31.4668 115.587 22.9369 108.529 15.9614C98.1009 5.66518 84.2444 0 69.4968 0C54.7491 0 40.8927 5.6716 30.4646 15.9614C23.3998 22.9369 18.4948 31.4668 16.0618 40.7674H18.215Z" fill="#D7D7D7"/>
<path d="M120.779 68.2324C118.391 76.9807 113.72 85.0031 107.052 91.5804C97.021 101.485 83.685 106.938 69.4968 106.938C55.3086 106.938 41.9726 101.485 31.9413 91.5804C25.2798 85.0031 20.6025 76.9807 18.215 68.2324H16.0618C18.4948 77.5331 23.4063 86.0629 30.4646 93.0384C40.8927 103.335 54.7491 109 69.4968 109C84.2444 109 98.1009 103.328 108.529 93.0384C115.594 86.0629 120.499 77.5331 122.932 68.2324H120.779Z" fill="#D7D7D7"/>
<path d="M114.267 68.2324C112.048 75.3235 108.1 81.8173 102.635 87.2127C93.7879 95.9481 82.0197 100.765 69.5034 100.765C56.9871 100.765 45.2189 95.9545 36.3716 87.2127C30.9071 81.8173 26.9583 75.3171 24.74 68.2324H20.3944C22.7298 76.4283 27.1665 83.9369 33.4312 90.1224C43.0656 99.635 55.8811 104.876 69.5099 104.876C83.1386 104.876 95.9542 99.635 105.589 90.1224C111.853 83.9369 116.283 76.4283 118.625 68.2324H114.267Z" fill="#D7D7D7"/>
<path d="M24.7333 40.7673C26.9516 33.6762 30.9004 27.1825 36.3649 21.7871C45.2122 13.0516 56.9804 8.23431 69.4967 8.23431C82.013 8.23431 93.7812 13.0452 102.629 21.7871C108.093 27.1825 112.042 33.6826 114.26 40.7673H118.606C116.27 32.5714 111.834 25.0628 105.569 18.8774C95.9345 9.36478 83.1189 4.12354 69.4902 4.12354C55.8615 4.12354 43.0459 9.36478 33.4115 18.8774C27.1468 25.0628 22.7167 32.5714 20.3748 40.7673H24.7333Z" fill="#D7D7D7"/>
<path d="M124.051 69.2603H14.9493C6.70701 69.2603 0 62.6381 0 54.5C0 46.362 6.70701 39.7397 14.9493 39.7397H124.051C132.293 39.7397 139 46.362 139 54.5C139 62.6445 132.293 69.2603 124.051 69.2603ZM14.9493 41.8016C7.85196 41.8016 2.0817 47.4988 2.0817 54.5064C2.0817 61.5141 7.85196 67.2113 14.9493 67.2113H124.051C131.148 67.2113 136.918 61.5141 136.918 54.5064C136.918 47.4988 131.148 41.8016 124.051 41.8016H14.9493Z" fill="#D7D7D7"/>
<path d="M69.4968 14.5356L71.8712 21.7424H79.541L73.3349 26.1936L75.7029 33.4003L69.4968 28.9491L63.2907 33.4003L65.6586 26.1936L59.4525 21.7424H67.1288L69.4968 14.5356Z" fill="#D7D7D7"/>
<path d="M37.9393 79.5693L38.4467 78.7022L37.2757 77.1606L36.2869 77.3983L35.8511 76.8202L40.1316 75.876L40.4829 76.3384L38.3752 80.1409L37.9393 79.5693ZM37.8742 77.0193L38.759 78.1819L39.6827 76.589L37.8742 77.0193Z" fill="#D7D7D7"/>
<path d="M40.1641 81.5282C40.1641 81.1364 40.3592 80.7446 40.7496 80.3657L42.4409 78.7085L42.9419 79.2095L41.2244 80.8923C40.9772 81.13 40.8536 81.3677 40.8406 81.6053C40.8276 81.843 40.9317 82.0742 41.1594 82.2926C41.3805 82.511 41.6083 82.6137 41.849 82.6009C42.0897 82.588 42.3304 82.466 42.5776 82.2284L44.295 80.5455L44.7959 81.0465L43.111 82.7037C42.7272 83.0826 42.3303 83.2689 41.9335 83.2689C41.5302 83.2689 41.1398 83.0762 40.756 82.6972C40.3527 82.3118 40.1641 81.9265 40.1641 81.5282Z" fill="#D7D7D7"/>
<path d="M44.4121 85.8701L46.4938 83.2174L45.466 82.4273L45.8303 81.9648L48.465 83.9881L48.1007 84.4506L47.0663 83.6605L44.9846 86.3133L44.4121 85.8701Z" fill="#D7D7D7"/>
<path d="M52.0299 86.1465L52.648 86.5062L50.6378 89.9105L50.0198 89.5508L50.8915 88.0735L49.1221 87.0522L48.2503 88.5295L47.6323 88.1762L49.6425 84.772L50.2605 85.1253L49.4148 86.5512L51.1843 87.5725L52.0299 86.1465Z" fill="#D7D7D7"/>
<path d="M52.7129 90.8996L54.2547 87.2642L56.7202 88.2854L56.499 88.8057L54.6905 88.0542L54.2612 89.0626L55.9656 89.7692L55.7444 90.2894L54.04 89.5829L53.5846 90.6491L55.3931 91.4006L55.1719 91.9209L52.7129 90.8996Z" fill="#D7D7D7"/>
<path d="M60.8121 89.512L61.4691 89.6919L60.4153 93.4944L59.8949 93.3531L58.5548 90.1287L57.8131 92.7942L57.1626 92.6208L58.2165 88.8184L58.7369 88.9596L60.0705 92.1776L60.8121 89.512Z" fill="#D7D7D7"/>
<path d="M63.6095 94.047L64.0714 90.7198L62.7833 90.5464L62.8614 89.9619L66.1661 90.4051L66.088 90.9896L64.7935 90.8162L64.3316 94.1433L63.6095 94.047Z" fill="#D7D7D7"/>
<path d="M67.4801 94.4194L67.6427 90.4756L68.3648 90.5013L68.2022 94.4451L67.4801 94.4194Z" fill="#D7D7D7"/>
<path d="M71.1882 94.2398C70.8825 94.092 70.6483 93.8672 70.4726 93.5718C70.297 93.2763 70.1994 92.923 70.1734 92.5184C70.1474 92.1137 70.2059 91.754 70.3425 91.4393C70.4791 91.1246 70.6938 90.8805 70.9735 90.7007C71.2598 90.5208 71.5915 90.418 71.9884 90.3923C72.2551 90.3795 72.5153 90.4052 72.756 90.4758C72.9967 90.5465 73.2049 90.6493 73.3675 90.7842L73.1658 91.3173C72.9772 91.1824 72.7951 91.0925 72.6129 91.0347C72.4308 90.9833 72.2421 90.9576 72.0404 90.9704C71.6566 90.9897 71.3639 91.131 71.1687 91.3943C70.9735 91.6513 70.889 92.011 70.915 92.4734C70.941 92.9359 71.0711 93.2892 71.2923 93.5268C71.5135 93.7645 71.8193 93.8737 72.2096 93.848C72.4112 93.8351 72.5999 93.7902 72.769 93.7195C72.9382 93.6488 73.1138 93.5332 73.2829 93.3727L73.5497 93.8801C73.4001 94.0342 73.2114 94.1627 72.9772 94.259C72.743 94.3554 72.4958 94.4132 72.2226 94.426C71.8387 94.4517 71.494 94.3875 71.1882 94.2398Z" fill="#D7D7D7"/>
<path d="M81.6423 92.6788L80.9072 92.8715L80.0745 91.7346C79.9964 91.6254 79.9119 91.5612 79.8078 91.5419C79.7037 91.5162 79.5801 91.529 79.437 91.5676L78.7344 91.7538L79.1637 93.3403L78.4677 93.5202L77.4398 89.7113L79.0922 89.2745C79.5281 89.1589 79.8858 89.1653 80.1656 89.2938C80.4453 89.4223 80.6339 89.6663 80.725 90.0196C80.7966 90.2701 80.7836 90.5078 80.699 90.7197C80.6079 90.9317 80.4518 91.1115 80.2241 91.2464C80.4648 91.2336 80.673 91.3492 80.8421 91.5869L81.6423 92.6788ZM79.45 90.9831C79.7167 90.9124 79.8988 90.8161 79.9964 90.6812C80.094 90.5527 80.12 90.3857 80.068 90.193C80.016 90.0003 79.9119 89.8719 79.7622 89.8141C79.6126 89.7498 79.4044 89.7563 79.1377 89.8269L78.266 90.0582L78.5783 91.2143L79.45 90.9831Z" fill="#D7D7D7"/>
<path d="M83.6069 91.9916L82.0977 88.3369L84.5697 87.3413L84.7844 87.8616L82.9628 88.5938L83.3792 89.6022L85.0901 88.915L85.3048 89.4417L83.5939 90.1289L84.0362 91.2016L85.8577 90.4693L86.0724 90.9896L83.6069 91.9916Z" fill="#D7D7D7"/>
<path d="M88.538 89.5573C88.1997 89.5508 87.8874 89.4545 87.6012 89.2682C87.315 89.0755 87.0678 88.8057 86.8661 88.4461C86.6644 88.0928 86.5603 87.7459 86.5408 87.3991C86.5278 87.0587 86.6059 86.7439 86.7815 86.4613C86.9572 86.1787 87.2174 85.941 87.5557 85.7483C87.7899 85.6199 88.0306 85.53 88.2778 85.4914C88.525 85.4465 88.7527 85.4529 88.9674 85.5107L89.0194 86.0759C88.7917 86.0374 88.5835 86.031 88.3949 86.0631C88.2062 86.0952 88.0241 86.153 87.8484 86.2558C87.5101 86.442 87.315 86.6925 87.2499 87.0137C87.1849 87.3284 87.2694 87.6946 87.4971 88.0928C87.7248 88.4974 87.998 88.7608 88.3038 88.8764C88.6095 88.992 88.9348 88.9599 89.2731 88.7672C89.4487 88.6709 89.5984 88.5488 89.722 88.4075C89.8456 88.2662 89.9496 88.0864 90.0342 87.8744L90.4961 88.2148C90.431 88.4204 90.3205 88.6131 90.1513 88.8057C89.9822 88.992 89.787 89.1526 89.5528 89.281C89.221 89.4673 88.8828 89.5637 88.538 89.5573Z" fill="#D7D7D7"/>
<path d="M92.4152 87.4505L90.1188 84.2197L90.7108 83.8086L93.0072 87.0394L92.4152 87.4505Z" fill="#D7D7D7"/>
<path d="M92.194 82.7423L93.5081 81.6247C93.8333 81.3485 94.1586 81.2072 94.4708 81.2136C94.7896 81.2136 95.0628 81.3485 95.297 81.6182C95.5312 81.888 95.6223 82.1771 95.5768 82.4918C95.5312 82.8065 95.3426 83.0956 95.0238 83.3718L94.2562 84.0205L95.3426 85.2666L94.7961 85.7355L92.194 82.7423ZM94.5944 83.0056C94.7831 82.8451 94.8937 82.6845 94.9262 82.5239C94.9588 82.3633 94.9067 82.2092 94.7831 82.0679C94.653 81.9201 94.5099 81.8495 94.3407 81.8495C94.1781 81.8559 93.996 81.9394 93.8073 82.1L93.1047 82.6973L93.8919 83.603L94.5944 83.0056Z" fill="#D7D7D7"/>
<path d="M98.6018 82.3056L95.6483 79.6528L97.4438 77.7002L97.8667 78.0792L96.5461 79.5115L97.3657 80.2438L98.6083 78.8949L99.0311 79.2739L97.7886 80.6227L98.6538 81.3999L99.9744 79.9675L100.397 80.3465L98.6018 82.3056Z" fill="#D7D7D7"/>
<path d="M101.893 78.3616C101.672 78.5286 101.445 78.6442 101.21 78.7085L100.924 78.2075C101.158 78.1368 101.36 78.0341 101.542 77.9056C101.724 77.7771 101.88 77.6101 102.03 77.411C102.193 77.1862 102.277 76.9871 102.284 76.8137C102.29 76.6338 102.225 76.4989 102.082 76.3962C101.958 76.3127 101.828 76.2998 101.679 76.3641C101.529 76.4283 101.334 76.576 101.093 76.788C100.716 77.1284 100.391 77.3404 100.117 77.4239C99.8442 77.5074 99.5775 77.456 99.3043 77.2697C99.1156 77.1348 98.979 76.9614 98.901 76.7559C98.8229 76.5503 98.8164 76.3191 98.8619 76.075C98.914 75.8245 99.0246 75.5804 99.2067 75.3364C99.3694 75.1116 99.558 74.9189 99.7727 74.7647C99.9874 74.6106 100.202 74.5142 100.417 74.4692L100.703 74.9638C100.267 75.0859 99.9223 75.3235 99.6686 75.6639C99.519 75.8695 99.4409 76.0686 99.4409 76.2484C99.4409 76.4283 99.5125 76.576 99.6621 76.6788C99.7922 76.7687 99.9288 76.7816 100.072 76.7237C100.215 76.6659 100.41 76.5246 100.657 76.3063C100.918 76.0814 101.139 75.9144 101.34 75.7988C101.536 75.6832 101.724 75.619 101.906 75.6125C102.089 75.6061 102.271 75.6639 102.446 75.786C102.642 75.9209 102.772 76.0943 102.843 76.2998C102.915 76.5054 102.921 76.7302 102.863 76.9807C102.804 77.2312 102.681 77.4817 102.492 77.745C102.316 77.9891 102.115 78.1946 101.893 78.3616Z" fill="#D7D7D7"/>
<path d="M17.2002 59.3754H12.3472L12.4643 58.5661L13.8369 58.0844V51.3851L12.4383 51.0961L12.5228 50.1904C13.1343 50.0941 13.8564 50.0106 14.6826 49.9335C15.5088 49.8564 16.1983 49.8179 16.7383 49.8179C18.1174 49.8179 19.1583 50.0106 19.8739 50.3959C20.583 50.7813 20.9408 51.4236 20.9408 52.3229C20.9408 52.7018 20.8432 53.0744 20.6415 53.4276C20.4463 53.7809 20.1796 54.0956 19.8479 54.359C19.5161 54.6288 19.1583 54.8279 18.768 54.9563L19.9324 56.5236C20.2512 56.9475 20.5114 57.2815 20.7196 57.5192C20.9277 57.7568 21.1554 57.9623 21.4091 58.1422C21.6628 58.322 21.9556 58.4505 22.2938 58.5404L22.5736 58.6175L22.398 59.3818C22.0141 59.5039 21.5848 59.5617 21.0969 59.5617C20.3683 59.5617 19.7503 59.369 19.2493 58.9836C18.7484 58.5982 18.3126 58.0458 17.9288 57.3393L16.9725 55.5858H16.0162V58.0266L17.2912 58.4762L17.2002 59.3754ZM16.0097 50.8456V54.4361H17.3628C17.7336 54.2819 18.0329 54.0571 18.254 53.7745C18.4752 53.4919 18.5923 53.1386 18.5923 52.7147C18.5923 52.3614 18.5142 52.0402 18.3516 51.7512C18.1955 51.4622 17.9613 51.2374 17.6621 51.0704C17.3628 50.9034 17.005 50.8199 16.6017 50.8199C16.4521 50.8199 16.3219 50.8263 16.2114 50.8327C16.0943 50.8391 16.0292 50.8456 16.0097 50.8456Z" fill="#D7D7D7"/>
<path d="M24.4862 50.7301L24.6033 49.8887H32.9692L32.7285 52.702L31.7331 52.5543L31.2518 50.8907H28.1097V54.1536H29.9247L30.2629 53.1709L31.3754 52.9653L31.1152 56.1962L30.0418 56.3696L29.788 55.085H28.1162V58.2194H31.4274L32.3707 56.4981L33.327 56.6137L33.0928 59.3692H24.5707L24.6488 58.5599L25.9239 58.0781V51.154L24.4862 50.7301Z" fill="#D7D7D7"/>
<path d="M38.2906 59.5551C37.5945 59.5551 36.9765 59.4459 36.4236 59.2339C35.8771 59.022 35.4803 58.7522 35.2461 58.4246L35.4218 56.0288L36.5016 56.1894L36.8074 57.6153C36.9635 57.8401 37.1912 58.02 37.5034 58.1677C37.8092 58.3155 38.1345 58.3861 38.4728 58.3861C38.7135 58.3861 38.9412 58.3411 39.1623 58.2448C39.377 58.1485 39.5526 58.0136 39.6828 57.8401C39.8129 57.6603 39.8779 57.4483 39.8779 57.2107C39.8779 56.9794 39.7999 56.7675 39.6437 56.5876C39.4876 56.4078 39.2924 56.2472 39.0582 56.1123C38.824 55.9774 38.4988 55.8169 38.0889 55.6178C37.51 55.3416 37.0351 55.0975 36.6773 54.8727C36.3195 54.6479 36.0137 54.3524 35.7535 53.9799C35.4933 53.6073 35.3632 53.1513 35.3632 52.6182C35.3632 52.0015 35.5323 51.4684 35.8771 51.0317C36.2219 50.5949 36.6643 50.2609 37.2107 50.0425C37.7572 49.8241 38.3361 49.7085 38.9542 49.7085C39.3835 49.7085 39.8454 49.7792 40.3268 49.914C40.8082 50.0489 41.1725 50.2288 41.4132 50.4407C41.4132 50.4921 41.3871 50.8518 41.3286 51.5198C41.27 52.1878 41.231 52.6503 41.2115 52.8943L40.1641 52.7274L39.9169 51.462C39.7933 51.2629 39.5917 51.0895 39.3054 50.9417C39.0192 50.794 38.733 50.7169 38.4402 50.7169C38.1084 50.7169 37.8352 50.8133 37.6336 50.9995C37.4319 51.1922 37.3278 51.462 37.3278 51.8088C37.3278 52.0593 37.4124 52.2777 37.5815 52.4768C37.7506 52.6695 37.9653 52.843 38.2125 52.9843C38.4662 53.132 38.8175 53.3054 39.2729 53.511C39.8779 53.7936 40.3723 54.0569 40.7496 54.2882C41.127 54.5194 41.4457 54.8277 41.7189 55.2002C41.9922 55.5792 42.1223 56.0288 42.1223 56.5555C42.1223 57.2043 41.9271 57.7566 41.5303 58.2063C41.1334 58.6559 40.639 58.9899 40.0471 59.2147C39.4486 59.4459 38.8696 59.5551 38.2906 59.5551Z" fill="#D7D7D7"/>
<path d="M44.0023 49.895H53.1618L52.9082 52.8882L51.8348 52.7147L51.4379 50.9034H49.5579V58.1487L51.0476 58.4891L50.9305 59.3755H46.0059L46.084 58.5598L47.4176 58.1166V50.897H45.5896L45.0497 52.9075L44.0413 52.7597L44.0023 49.895Z" fill="#D7D7D7"/>
<path d="M55.0483 59.3753L55.1589 58.566L56.3494 57.9623L59.5435 50.0683L61.4561 49.7021L64.4681 57.9944L65.574 58.5211L65.4894 59.3818H60.695L60.8056 58.5724L62.1131 57.9687L61.5407 56.3822H58.4181L57.8456 57.9815L59.2898 58.5018L59.1922 59.3689H55.0483V59.3753ZM58.828 55.1939H61.1504L60.0249 51.8732L58.828 55.1939Z" fill="#D7D7D7"/>
<path d="M68.9178 51.1989L67.4736 50.7557L67.6363 49.895H72.5088L72.3917 50.7557L71.0971 51.1604V55.3675C71.0971 56.2924 71.3183 56.9797 71.7607 57.4229C72.203 57.8661 72.808 58.0909 73.5822 58.0909C74.2913 58.0909 74.8442 57.8789 75.241 57.4486C75.6379 57.0246 75.833 56.3695 75.833 55.4895L75.8396 51.1989L74.4604 50.7557L74.571 49.895H78.6759L78.5653 50.7557L77.2837 51.1604L77.2512 55.2583C77.2382 56.7228 76.8804 57.8083 76.1908 58.5148C75.5013 59.2213 74.4604 59.5746 73.0748 59.5746C72.3267 59.5746 71.6566 59.4847 71.0581 59.3049C70.4596 59.125 69.9522 58.7589 69.5359 58.1936C69.1195 57.6284 68.9113 56.8127 68.9113 55.74V51.1989H68.9178Z" fill="#D7D7D7"/>
<path d="M85.3958 59.3754H80.5428L80.6599 58.5661L82.0326 58.0844V51.3851L80.6339 51.0961L80.7185 50.1904C81.33 50.0941 82.0521 50.0106 82.8782 49.9335C83.7044 49.8564 84.394 49.8179 84.934 49.8179C86.3131 49.8179 87.354 50.0106 88.0695 50.3959C88.7786 50.7813 89.1364 51.4236 89.1364 52.3229C89.1364 52.7018 89.0388 53.0744 88.8372 53.4276C88.642 53.7809 88.3753 54.0956 88.0435 54.359C87.7117 54.6288 87.354 54.8279 86.9636 54.9563L88.1281 56.5236C88.4468 56.9475 88.7071 57.2815 88.9152 57.5192C89.1234 57.7568 89.3511 57.9623 89.6048 58.1422C89.8585 58.322 90.1512 58.4505 90.4895 58.5404L90.7692 58.6175L90.5936 59.3818C90.2098 59.5039 89.7805 59.5617 89.2926 59.5617C88.564 59.5617 87.9459 59.369 87.445 58.9836C86.9441 58.5982 86.5083 58.0458 86.1245 57.3393L85.1681 55.5858H84.2119V58.0266L85.4869 58.4762L85.3958 59.3754ZM84.2054 50.8456V54.4361H85.5585C85.9293 54.2819 86.2285 54.0571 86.4497 53.7745C86.6709 53.4919 86.788 53.1386 86.788 52.7147C86.788 52.3614 86.7099 52.0402 86.5473 51.7512C86.3911 51.4622 86.157 51.2374 85.8577 51.0704C85.5585 50.9034 85.2007 50.8199 84.7973 50.8199C84.6477 50.8199 84.5176 50.8263 84.407 50.8327C84.2899 50.8391 84.2249 50.8456 84.2054 50.8456Z" fill="#D7D7D7"/>
<path d="M92.6753 59.3753L92.7859 58.566L93.9764 57.9623L97.1705 50.0683L99.0831 49.7021L102.095 57.9944L103.201 58.5211L103.116 59.3818H98.3285L98.4391 58.5724L99.7401 57.9687L99.1677 56.3822H96.0451L95.4726 57.9815L96.9168 58.5018L96.8192 59.3689H92.6753V59.3753ZM96.4614 55.1939H98.7838L97.6584 51.8732L96.4614 55.1939Z" fill="#D7D7D7"/>
<path d="M105.185 50.7751L105.283 49.8887H108.334L112.862 56.3053V51.1926L111.424 50.7494L111.56 49.8887H115.62L115.464 50.7494L114.176 51.154V59.3049L112.491 59.594L107.95 53.3443V58.1295L109.349 58.4956L109.258 59.3627H105.185L105.263 58.5534L106.558 58.0717V51.2825L105.185 50.7751Z" fill="#D7D7D7"/>
<path d="M117.493 49.895H126.653L126.399 52.8882L125.326 52.7147L124.929 50.9034H123.049V58.1487L124.539 58.4891L124.422 59.3755H119.497L119.575 58.5598L120.909 58.1166V50.897H119.081L118.541 52.9075L117.532 52.7597L117.493 49.895Z" fill="#D7D7D7"/>
</svg>
