<svg width="145" height="107" viewBox="0 0 145 107" fill="none" xmlns="http://www.w3.org/2000/svg">
<path d="M5.91848 74.7902L10.3682 64.4555C10.6296 63.8455 10.6296 63.1514 10.3682 62.5414L5.91848 52.2067H13.8964V47.439H2.34214C1.55123 47.439 0.815346 47.8456 0.38206 48.5187C-0.0512249 49.1918 -0.120014 50.0402 0.196353 50.7764L5.67085 63.4949L0.196353 76.2135C-0.120014 76.9497 -0.0512249 77.7981 0.38206 78.4711C0.815346 79.1442 1.55123 79.5509 2.34214 79.5509H29.364C28.4699 78.0154 27.6446 76.4238 26.9087 74.7832H5.91848V74.7902Z" fill="#D7D7D7"/>
<path d="M139.329 63.5017L144.804 50.7832C145.12 50.047 145.051 49.1986 144.618 48.5255C144.185 47.8524 143.449 47.4458 142.658 47.4458H131.104V52.2135H139.082L134.632 62.5482C134.37 63.1582 134.37 63.8523 134.632 64.4623L139.082 74.797H118.091C117.355 76.4377 116.537 78.0222 115.636 79.5647H142.658C143.449 79.5647 144.185 79.1581 144.618 78.485C145.051 77.8119 145.12 76.9635 144.804 76.2273L139.329 63.5017Z" fill="#D7D7D7"/>
<path d="M51.1452 39.8244C55.6156 32.5957 63.5179 27.7789 72.5 27.7789C81.4821 27.7789 89.3844 32.5957 93.8548 39.8244H96.5714C91.8534 31.2285 82.8301 25.395 72.5 25.395C62.1699 25.395 53.1466 31.2214 48.4286 39.8244H51.1452Z" fill="#D7D7D7"/>
<path d="M93.8548 67.1758C89.3844 74.4045 81.4821 79.2213 72.5 79.2213C63.5179 79.2213 55.6156 74.4045 51.1452 67.1758H48.4286C53.1466 75.7717 62.1699 81.6051 72.5 81.6051C82.8301 81.6051 91.8534 75.7787 96.5714 67.1758H93.8548Z" fill="#D7D7D7"/>
<path d="M26.6199 39.8244C32.4315 19.5897 50.8014 4.77472 72.5 4.77472C94.1987 4.77472 112.569 19.5967 118.38 39.8244H123.249C120.918 30.7728 116.269 22.4713 109.604 15.6703C99.6939 5.567 86.5165 0 72.5 0C58.4836 0 45.3062 5.567 35.3957 15.6703C28.7313 22.4643 24.0821 30.7658 21.7506 39.8244H26.6199Z" fill="#D7D7D7"/>
<path d="M118.38 67.1758C112.569 87.4105 94.1987 102.225 72.5 102.225C50.8014 102.225 32.4315 87.4035 26.6199 67.1758H21.7506C24.0821 76.2274 28.7313 84.5288 35.3957 91.3298C45.3062 101.433 58.4836 107 72.5 107C86.5165 107 99.6939 101.433 109.604 91.3298C116.269 84.5358 120.918 76.2344 123.249 67.1758H118.38Z" fill="#D7D7D7"/>
<path d="M131.104 69.5594H13.8964C12.6035 69.5594 11.5581 68.4937 11.5581 67.1755V39.8243C11.5581 38.5062 12.6035 37.4404 13.8964 37.4404H131.104C132.397 37.4404 133.442 38.5062 133.442 39.8243V67.1755C133.442 68.4937 132.397 69.5594 131.104 69.5594ZM16.2348 64.7987H128.772V42.2151H16.2348V64.7987Z" fill="#D7D7D7"/>
<path d="M29.7561 60.4798V46.4922H32.851C33.6694 46.4922 34.4053 46.7095 35.0587 47.1513C35.6227 47.5229 36.0216 48.0978 36.2623 48.883C36.393 49.2967 36.4617 49.7945 36.4617 50.3694C36.4617 51.309 36.2141 52.0592 35.7258 52.6201C35.5195 52.8585 35.2788 53.0408 35.0037 53.167C35.4645 53.3422 35.8565 53.6998 36.1729 54.2257C36.3861 54.5833 36.5442 55.046 36.6405 55.6069C36.6887 55.8944 36.7162 56.2169 36.7162 56.5745C36.7162 57.4579 36.5511 58.2081 36.221 58.8251C35.9665 59.3089 35.602 59.6945 35.1412 59.982C34.6185 60.3115 34.0958 60.4728 33.5731 60.4728H29.7561V60.4798ZM31.9844 52.2064H32.851C33.4906 52.2064 33.9239 51.8839 34.144 51.2459C34.2265 51.0075 34.2609 50.713 34.2609 50.3624C34.2609 49.7805 34.1234 49.3458 33.8483 49.0443C33.5938 48.7708 33.2637 48.6306 32.851 48.6306H31.9844V52.2064ZM31.9844 58.3974H32.851C33.5525 58.3974 34.0339 58.0328 34.309 57.2896C34.4053 57.0372 34.4535 56.7498 34.4535 56.4202C34.4535 55.642 34.309 55.0741 34.0133 54.7165C33.752 54.3869 33.3668 54.2257 32.851 54.2257H31.9844V58.3974Z" fill="#D7D7D7"/>
<path d="M44.8523 60.6339C43.9376 60.6339 43.1673 60.3114 42.5346 59.6663C41.9018 59.0213 41.5854 58.236 41.5854 57.3105V46.499H43.6074V57.2825C43.6074 57.619 43.7244 57.8995 43.9582 58.1379C44.192 58.3693 44.474 58.4884 44.7973 58.4884C45.1274 58.4884 45.4025 58.3693 45.6363 58.1379C45.8633 57.9065 45.9802 57.619 45.9802 57.2825V46.499H48.1329V57.3105C48.1329 58.2501 47.8096 59.0353 47.17 59.6734C46.5304 60.3184 45.7532 60.6339 44.8523 60.6339Z" fill="#D7D7D7"/>
<path d="M55.0654 48.6238H52.8646V46.5063H59.3226V48.6238H57.1355V60.4799H55.0654V48.6238Z" fill="#D7D7D7"/>
<path d="M67.1081 60.662C66.1934 60.662 65.4231 60.3394 64.7835 59.6874C64.1438 59.0353 63.8275 58.2501 63.8275 57.3316V49.7033C63.8275 48.7708 64.1507 47.9855 64.7903 47.3334C65.43 46.6814 66.2071 46.3589 67.1081 46.3589C68.0228 46.3589 68.7931 46.6884 69.4258 47.3404C70.0585 47.9925 70.3749 48.7848 70.3749 49.7033V51.3019H68.2291V49.6612C68.2291 49.3247 68.1122 49.0372 67.8784 48.7988C67.6445 48.5604 67.3626 48.4412 67.0324 48.4412C66.7023 48.4412 66.4272 48.5604 66.1934 48.7988C65.9664 49.0372 65.8495 49.3247 65.8495 49.6612V57.3106C65.8495 57.6471 65.9664 57.9276 66.1934 58.1659C66.4203 58.3973 66.7023 58.5165 67.0324 58.5165C67.3626 58.5165 67.6445 58.3973 67.8784 58.1659C68.1122 57.9346 68.2291 57.6471 68.2291 57.3106V55.3825H70.3749V57.3316C70.3749 58.2641 70.0517 59.0494 69.4121 59.6944C68.7725 60.3324 68.0022 60.662 67.1081 60.662Z" fill="#D7D7D7"/>
<path d="M77.2249 54.5554V60.4799H75.1548V46.5063H77.2249V52.438H79.7215V46.5063H81.7916V60.4799H79.7215V54.5554H77.2249Z" fill="#D7D7D7"/>
<path d="M86.7159 60.4798V46.4922H92.6031V48.6096H88.7861V52.4238H91.5784V54.5412H88.7861V58.3554H92.6031V60.4728H86.7159V60.4798Z" fill="#D7D7D7"/>
<path d="M100.368 46.5063C101.523 46.5063 102.369 46.8289 102.906 47.4739C103.38 48.0418 103.614 48.8271 103.614 49.8367V51.87C103.614 52.8586 103.243 53.693 102.507 54.3801L104.04 60.4799H101.805L100.554 55.2145C100.492 55.2145 100.437 55.2145 100.368 55.2145H99.1781V60.4799H97.1079V46.5063H100.368ZM101.606 49.8718C101.606 49.0585 101.214 48.6588 100.423 48.6588H99.1781V53.1321H100.423C100.753 53.1321 101.028 53.0129 101.262 52.7745C101.489 52.5361 101.606 52.2487 101.606 51.9191V49.8718Z" fill="#D7D7D7"/>
<path d="M110.395 54.6253L107.624 46.4922H109.9L111.434 51.5123L112.954 46.4922H115.244L112.465 54.6253V60.4798H110.395V54.6253Z" fill="#D7D7D7"/>
<path d="M44.5152 26.6078L44.2814 26.2853L47.0393 23.5859L47.8096 24.6657L47.4382 24.9321L46.7917 24.4904L45.7669 25.486L46.9293 26.72L47.5276 26.1381L47.3213 25.6823L47.6239 25.2336L48.6142 26.4956L48.3391 26.9023L47.8164 26.5167L47.2594 27.0636L48.0709 27.926L48.8068 27.5123L49.0475 27.8418L47.3213 29.5245L47.0943 29.216L47.3557 28.6411L45.1273 26.2783L44.5152 26.6078Z" fill="#D7D7D7"/>
<path d="M53.1328 24.5185L51.2896 25.7875L51.1245 25.444L51.5234 24.8971L49.7765 22.2748L49.1713 22.5273L48.965 22.1486C49.1713 21.9523 49.4258 21.728 49.7146 21.4826C50.0104 21.2372 50.2579 21.0409 50.4643 20.9006C50.987 20.536 51.434 20.3397 51.8054 20.3047C52.1768 20.2696 52.4794 20.4239 52.7132 20.7814C52.8095 20.9287 52.8714 21.104 52.8852 21.2933C52.9058 21.4826 52.8852 21.6789 52.8233 21.8682C52.7683 22.0575 52.6857 22.2328 52.5688 22.387L53.4216 22.6955C53.6555 22.7797 53.8412 22.8428 53.9787 22.8778C54.1163 22.9199 54.2607 22.9339 54.4051 22.9409C54.5496 22.9409 54.694 22.9199 54.8453 22.8638L54.9691 22.8218L55.0998 23.1653C54.9897 23.3125 54.8384 23.4528 54.6527 23.579C54.3776 23.7683 54.0888 23.8594 53.7999 23.8384C53.511 23.8173 53.2015 23.7192 52.8714 23.5369L52.053 23.1022L51.6885 23.3546L52.3212 24.3082L52.9196 24.1539L53.1328 24.5185ZM50.4574 21.4896L51.3928 22.8989L51.9086 22.5483C52.0117 22.387 52.0668 22.2258 52.0736 22.0575C52.0874 21.8892 52.0323 21.721 51.9223 21.5527C51.8329 21.4125 51.716 21.3073 51.5784 21.2372C51.4409 21.1671 51.2965 21.139 51.1383 21.153C50.9801 21.1671 50.8219 21.2302 50.6706 21.3353C50.6156 21.3774 50.5674 21.4125 50.5262 21.4405C50.4918 21.4616 50.4643 21.4826 50.4574 21.4896Z" fill="#D7D7D7"/>
<path d="M54.9278 18.6153L54.8177 18.2296L58.3184 16.624L58.7517 17.8861L58.3047 18.0123L57.7889 17.3883L56.4753 17.9912L57.0942 19.4005L57.8508 19.05L57.8026 18.5592L58.229 18.2577L58.7311 19.702L58.3184 19.9825L57.9677 19.4776L57.2662 19.8002L57.8645 21.1534L59.2469 20.5223L59.3157 19.5968L59.7352 19.4636L60.1616 20.6976L56.5991 22.3313L56.4753 21.9667L56.9154 21.5179L55.5949 18.5241L54.9278 18.6153Z" fill="#D7D7D7"/>
<path d="M63.1672 19.8281C62.8577 19.9122 62.5757 19.9402 62.3006 19.9122C62.0324 19.8842 61.826 19.807 61.6816 19.6879L61.4616 18.573L61.9567 18.5099L62.2731 19.1199C62.3694 19.204 62.4932 19.2602 62.6514 19.2882C62.8027 19.3162 62.9608 19.3092 63.1053 19.2672C63.2153 19.2391 63.3047 19.19 63.3942 19.1199C63.4767 19.0498 63.5385 18.9657 63.5729 18.8675C63.6073 18.7694 63.6142 18.6642 63.5798 18.552C63.5523 18.4468 63.4904 18.3627 63.401 18.2996C63.3116 18.2365 63.2016 18.1874 63.0847 18.1594C62.9677 18.1243 62.8027 18.0893 62.5963 18.0542C62.3075 17.9981 62.0668 17.949 61.8811 17.8859C61.6954 17.8298 61.5234 17.7317 61.3584 17.5914C61.2002 17.4512 61.0833 17.2619 61.0145 17.0165C60.9389 16.7361 60.9457 16.4696 61.042 16.2242C61.1383 15.9788 61.2965 15.7755 61.5097 15.6072C61.7229 15.439 61.9636 15.3128 62.2387 15.2426C62.4313 15.1866 62.6376 15.1655 62.8715 15.1655C63.0984 15.1655 63.2841 15.2006 63.4148 15.2707C63.4216 15.2917 63.456 15.46 63.5111 15.7755C63.5661 16.091 63.6073 16.3014 63.628 16.4135L63.1465 16.4696L62.8783 15.9227C62.7958 15.8456 62.6857 15.7966 62.5413 15.7615C62.3969 15.7264 62.2593 15.7334 62.1287 15.7685C61.9842 15.8106 61.8742 15.8877 61.8054 15.9999C61.7367 16.1121 61.7298 16.2453 61.771 16.4065C61.7985 16.5187 61.8673 16.6099 61.9636 16.68C62.0599 16.7501 62.1768 16.7992 62.3075 16.8342C62.4382 16.8693 62.617 16.9043 62.8371 16.9464C63.1397 17.0025 63.3873 17.0586 63.5867 17.1147C63.7793 17.1778 63.965 17.2759 64.13 17.4092C64.2951 17.5494 64.412 17.7387 64.4739 17.9771C64.5564 18.2716 64.5358 18.552 64.4189 18.8044C64.302 19.0568 64.1232 19.2742 63.8893 19.4494C63.6692 19.6388 63.4217 19.758 63.1672 19.8281Z" fill="#D7D7D7"/>
<path d="M65.9663 14.8288L65.9869 14.4152L68.2152 14.1838L68.2015 14.5975L67.6307 14.8499L67.7613 16.14L69.6527 15.9436L69.5289 14.6676L68.8686 14.5274L68.8755 14.1137L71.1176 13.8823L71.1038 14.296L70.533 14.5484L70.8631 17.8367L71.5165 17.9419V18.3555L69.2881 18.5869L69.295 18.2013L69.859 17.9138L69.7283 16.5817L67.837 16.778L67.9745 18.1382L68.6348 18.2434L68.621 18.657L66.4065 18.8884V18.5028L66.9773 18.2153L66.6541 14.9691L65.9663 14.8288Z" fill="#D7D7D7"/>
<path d="M76.2758 18.5028L76.4133 18.1102L77.0392 18.005L77.892 14.8639L77.2936 14.5554L77.4174 14.1558L79.1712 14.5133L79.295 15.2706L79.5907 17.6053L80.8425 15.523L81.2069 14.927L82.9332 15.2776L82.8025 15.6772L82.1973 15.7263L81.7778 18.9866L82.3624 19.2951L82.2386 19.7087L80.196 19.2951L80.3404 18.9024L80.8631 18.7762L81.1726 16.2171L79.5288 19.0076L78.7998 18.9585L78.3872 15.6912L77.7338 18.1522L78.2358 18.4467L78.0914 18.8604L76.2758 18.5028Z" fill="#D7D7D7"/>
<path d="M85.2853 16.5115L85.4847 16.168L89.0335 17.6614L88.4352 18.8463L88.0363 18.6079L88.1257 17.7946L86.7914 17.2337L86.2138 18.664L86.984 18.9865L87.3004 18.6149L87.8094 18.7201L87.1284 20.0873L86.6402 19.9751L86.764 19.3651L86.0555 19.0637L85.4985 20.4309L86.9015 21.0198L87.603 20.4309L87.9881 20.6482L87.4036 21.8121L83.7928 20.2906L83.9717 19.9541L84.5975 19.9681L85.8286 16.9392L85.2853 16.5115Z" fill="#D7D7D7"/>
<path d="M88.9098 22.5764L89.1505 22.282L89.7626 22.3381L92.9676 19.9893L93.7997 20.3258L92.8919 24.3924L93.1876 24.8762L92.94 25.1987L91.09 23.9997L91.3307 23.7053L91.984 23.7894L92.156 23.0111L90.9456 22.2259L90.3266 22.7237L90.753 23.2916L90.4985 23.6141L88.9098 22.5764ZM91.4132 21.8613L92.3142 22.4432L92.7062 20.8306L91.4132 21.8613Z" fill="#D7D7D7"/>
<path d="M97.2178 22.9341L100.306 25.8298L99.2811 26.7903L98.9716 26.3907L99.4118 25.6334L98.779 25.0375L96.5025 27.5616L96.8946 28.1505L96.5782 28.424L94.9138 26.8675L95.1958 26.608L95.7873 26.8745L98.0569 24.3574L97.4379 23.7755L96.6263 24.3083L96.3306 23.9367L97.2178 22.9341Z" fill="#D7D7D7"/>
<path d="M42.7684 79.1372L41.5648 77.6577L41.8193 77.5035L42.2595 77.7699L44.1302 76.1854L43.8963 75.7296L44.1646 75.5474C44.3846 75.7507 44.5841 75.933 44.7491 76.1012C44.9142 76.2695 45.0862 76.4518 45.2581 76.6692C45.5401 77.0127 45.6982 77.3282 45.7395 77.6227C45.7808 77.9102 45.657 78.1836 45.3681 78.422C45.2031 78.5622 45.0174 78.6393 44.811 78.6674C44.6047 78.6884 44.3984 78.6604 44.1921 78.5693C43.9857 78.4781 43.8069 78.3378 43.6487 78.1415C43.6144 78.0995 43.5593 78.0294 43.4974 77.9382L43.7244 77.6577L43.7863 77.7349C43.9445 77.9242 44.1095 78.0293 44.2815 78.0504C44.4534 78.0714 44.6185 78.0153 44.7767 77.8751C44.9417 77.7349 45.038 77.5736 45.0655 77.3983C45.093 77.216 45.038 77.0338 44.8867 76.8515C44.8661 76.8234 44.8386 76.7954 44.8042 76.7603C44.7698 76.7253 44.7492 76.7042 44.7285 76.6832L42.7753 78.3379L43.071 78.9549L42.7684 79.1372Z" fill="#D7D7D7"/>
<path d="M45.8633 82.4533L44.6047 81.2543L44.8317 81.065L45.3062 81.2754L46.95 79.4805L46.6611 79.0598L46.9087 78.8354C47.0944 78.9617 47.3007 79.1159 47.5346 79.2982C47.7684 79.4805 47.9541 79.6417 48.0985 79.7749C48.4561 80.1185 48.6831 80.427 48.7725 80.7004C48.8619 80.9809 48.8 81.2403 48.5799 81.4787C48.4837 81.5839 48.3736 81.654 48.2292 81.7031C48.0916 81.7521 47.9472 81.7662 47.7959 81.7592C47.6446 81.7451 47.5002 81.7101 47.3695 81.654L47.287 82.3621C47.2663 82.5584 47.2526 82.7057 47.2457 82.8249C47.2388 82.937 47.2526 83.0493 47.2732 83.1614C47.2939 83.2736 47.342 83.3788 47.4039 83.4839L47.4589 83.5751L47.2251 83.7364C47.0944 83.6733 46.9706 83.5821 46.8399 83.4629C46.6474 83.2806 46.5373 83.0773 46.5029 82.8529C46.4686 82.6286 46.4892 82.3691 46.5648 82.0887L46.7436 81.3805L46.4961 81.1422L45.8977 81.7942L46.1178 82.2289L45.8633 82.4533ZM47.6446 79.8731L46.7643 80.8337L47.115 81.1702C47.2526 81.2193 47.3832 81.2333 47.507 81.2123C47.6308 81.1912 47.7478 81.1211 47.8509 81.0089C47.9403 80.9108 47.9953 80.8056 48.0229 80.6934C48.0504 80.5742 48.0504 80.4621 48.0091 80.3429C47.9747 80.2237 47.8991 80.1115 47.7959 80.0133C47.7546 79.9783 47.7203 79.9432 47.6927 79.9222C47.6652 79.8942 47.6515 79.8801 47.6446 79.8731Z" fill="#D7D7D7"/>
<path d="M50.3681 82.2781L50.5744 82.0537L52.9885 83.8206L52.3282 84.6058L52.0737 84.3534L52.2869 83.7575L51.3791 83.0984L50.6982 84.073L51.2209 84.4586L51.5235 84.2342L51.888 84.4095L51.1384 85.314L50.7945 85.1387L50.994 84.704L50.5125 84.3534L49.8591 85.2859L50.8151 85.987L51.4479 85.6716L51.7024 85.9099L51.0559 86.6812L48.6006 84.8863L48.7931 84.6619L49.2608 84.7881L50.712 82.7268L50.3681 82.2781Z" fill="#D7D7D7"/>
<path d="M52.5276 87.6699L52.7133 87.4105L53.2016 87.4666L54.4946 85.3141L54.1095 84.9566L54.2814 84.6831L55.5125 85.3281L55.4437 85.9171L55.1686 87.719L56.5372 86.443L56.9292 86.0784L58.1397 86.7164L57.9609 86.9828L57.5001 86.8847L56.5028 89.2195L56.8742 89.577L56.6954 89.8575L55.2649 89.1002L55.4505 88.8408L55.8632 88.8619L56.6266 87.0249L54.8178 88.7426L54.2814 88.5464L54.6597 86.0293L53.6555 87.719L53.9719 88.0485L53.7793 88.322L52.5276 87.6699Z" fill="#D7D7D7"/>
<path d="M59.3708 87.5226L59.5153 87.2422L61.1521 87.8522L61.0077 88.1466L60.5125 88.1186L59.6597 90.4954L60.0793 90.7969L59.9348 91.0984L58.3186 90.4954L58.4424 90.222H58.9444L59.7904 87.8522L59.3708 87.5226Z" fill="#D7D7D7"/>
<path d="M62.727 88.862L62.2662 88.5816L62.3969 88.2871L64.0819 88.6938L63.9719 88.9882L63.4904 89.0233L63.1397 90.5237C63.064 90.8532 63.0847 91.1127 63.2016 91.309C63.3185 91.5053 63.5111 91.6315 63.7724 91.7016C64.02 91.7577 64.2263 91.7296 64.3983 91.6105C64.5702 91.4913 64.694 91.2739 64.7628 90.9584L65.1204 89.43L64.6803 89.1565L64.7903 88.855L66.2071 89.1986L66.097 89.5001L65.6225 89.5351L65.2717 90.9935C65.1479 91.5123 64.9347 91.8699 64.639 92.0662C64.3433 92.2625 63.9512 92.2976 63.4767 92.1854C63.2222 92.1223 62.9952 92.0381 62.8027 91.919C62.6101 91.8068 62.4657 91.6315 62.3694 91.3931C62.2731 91.1547 62.2662 90.8462 62.3556 90.4676L62.727 88.862Z" fill="#D7D7D7"/>
<path d="M67.1012 92.8934L67.17 92.5779L67.6446 92.4377L68.009 89.9417L67.5208 89.7664L67.5757 89.4438L68.9581 89.549L69.1232 90.124L69.5634 91.8908L70.3337 90.1731L70.5606 89.6823L71.9224 89.7874L71.8605 90.1099L71.3997 90.2011L71.3722 92.7462L71.8536 92.9285L71.7986 93.258L70.1893 93.1318L70.2649 92.8163L70.6569 92.6691V90.6708L69.6528 92.9706L69.0888 93.0056L68.4699 90.5376L68.1879 92.4938L68.6005 92.6691L68.5249 92.9986L67.1012 92.8934Z" fill="#D7D7D7"/>
<path d="M77.8851 92.9006C77.5344 92.9497 77.2249 92.9216 76.9567 92.8094C76.6885 92.6972 76.4684 92.5149 76.3033 92.2695C76.1383 92.0241 76.0282 91.7297 75.9801 91.3861C75.932 91.0285 75.9664 90.706 76.0764 90.4045C76.1933 90.1031 76.379 89.8576 76.6403 89.6613C76.9017 89.465 77.218 89.3388 77.5963 89.2827C77.9402 89.2336 78.2497 89.2617 78.5248 89.3668C78.793 89.472 79.0131 89.6473 79.185 89.8997C79.3569 90.1451 79.467 90.4606 79.5151 90.8252C79.5564 91.0986 79.5358 91.3651 79.4739 91.6175C79.4051 91.8699 79.2951 92.0873 79.13 92.2836C78.9718 92.4729 78.7723 92.6201 78.5385 92.7183C78.6486 92.8865 78.7999 93.0057 79.0062 93.0828C79.2056 93.16 79.4739 93.209 79.8109 93.2231C79.8109 93.2371 79.8109 93.2932 79.8109 93.3703C79.8109 93.4545 79.8109 93.5035 79.804 93.5175C79.6252 93.6227 79.4257 93.6858 79.1988 93.7209C79.0062 93.7489 78.8274 93.7349 78.6623 93.6858C78.4904 93.6368 78.3528 93.5386 78.2359 93.4054C78.119 93.2651 78.0571 93.0899 78.0296 92.8795C77.9883 92.8795 77.9402 92.8866 77.8851 92.9006ZM77.4932 89.7455C77.1974 89.7875 76.998 89.9207 76.881 90.1521C76.7641 90.3835 76.7366 90.692 76.7916 91.0776C76.826 91.316 76.8948 91.5404 76.998 91.7577C77.108 91.9751 77.2524 92.1503 77.445 92.2905C77.6376 92.4308 77.8714 92.4869 78.1465 92.4729C78.3253 92.3817 78.4491 92.2695 78.5385 92.1293C78.621 91.9961 78.6761 91.8419 78.6898 91.6736C78.7036 91.5053 78.6967 91.316 78.6692 91.0987C78.6348 90.8673 78.5729 90.6429 78.4698 90.4185C78.3666 90.2012 78.2359 90.0189 78.0708 89.8857C77.9058 89.7595 77.7132 89.7104 77.4932 89.7455Z" fill="#D7D7D7"/>
<path d="M81.0833 89.1843L80.5468 89.1703L80.5193 88.8477L82.1768 88.3569L82.225 88.6724L81.826 88.9459L82.2456 90.4253C82.335 90.7478 82.4794 90.9722 82.6789 91.0844C82.8714 91.1965 83.1053 91.2106 83.3666 91.1334C83.6073 91.0633 83.7792 90.9301 83.8687 90.7408C83.9581 90.5515 83.9649 90.2991 83.8755 89.9906L83.4491 88.4762L82.9333 88.4621L82.8852 88.1466L84.2882 87.7329L84.3363 88.0484L83.9375 88.3219L84.3363 89.7662C84.4739 90.2851 84.467 90.6987 84.3019 91.0212C84.1369 91.3367 83.8205 91.5681 83.346 91.7084C83.0915 91.7855 82.8508 91.8205 82.6307 91.8135C82.4106 91.8065 82.1974 91.7294 81.998 91.5752C81.7985 91.4209 81.6472 91.1475 81.544 90.7759L81.0833 89.1843Z" fill="#D7D7D7"/>
<path d="M86.8053 90.4817L86.7228 90.1942L87.0185 89.8156L86.8809 86.7026L87.4449 86.2959L89.6457 88.6166L90.079 88.6307L90.1822 88.9322L88.6347 89.6473L88.5522 89.3598L88.8823 88.9672L88.4628 88.5255L87.4518 88.9883L87.5068 89.6053L88.0501 89.5632L88.1464 89.8717L86.8053 90.4817ZM87.4105 88.5255L88.1602 88.1819L87.3005 87.2425L87.4105 88.5255Z" fill="#D7D7D7"/>
<path d="M91.7021 88.0763L91.5783 87.8028L91.8672 87.4172L90.5879 85.3068L90.0584 85.3909L89.9346 85.1034L91.4408 84.1499L91.5645 84.4374L91.2413 84.8791L92.5549 87.0456L93.4009 86.5478L93.3802 85.7064L93.6966 85.5662L94.1436 86.5338L91.7021 88.0763Z" fill="#D7D7D7"/>
<path d="M93.6622 83.0072L93.504 82.7338L94.8864 81.647L95.0584 81.9274L94.7695 82.3411L96.2894 84.3464L96.764 84.143L96.9359 84.4305L95.5742 85.5032L95.4091 85.2508L95.6774 84.8161L94.1643 82.8249L93.6622 83.0072Z" fill="#D7D7D7"/>
<path d="M95.8768 80.8269L98.2289 78.5342L98.9098 79.3896L98.5935 79.614L98.0433 79.2353L97.5618 79.7051L99.3638 81.6262L99.8314 81.3457L100.024 81.6122L98.7585 82.8462L98.5728 82.6078L98.8067 82.1591L97.0116 80.2449L96.5439 80.7007L96.9085 81.3668L96.6127 81.5841L95.8768 80.8269Z" fill="#D7D7D7"/>
<path d="M99.3018 77.8329L99.0955 77.5805L100.1 76.3115L100.313 76.5569L100.217 76.8934L101.413 77.1178L100.946 75.989L100.595 76.1993L100.375 75.9609L101.166 74.9653L101.379 75.2107L101.289 75.5543L101.915 77.265L102.651 77.875L103.064 77.6156L103.277 77.8329L102.232 79.1441L102.032 78.9267L102.163 78.485L101.468 77.9101L99.6457 77.6226L99.3018 77.8329Z" fill="#D7D7D7"/>
</svg>
