<svg width="138" height="109" viewBox="0 0 138 109" fill="none" xmlns="http://www.w3.org/2000/svg">
<path d="M67.5358 100.247C67.5282 100.247 67.5206 100.247 67.5129 100.247C66.5139 100.216 65.4997 100.146 64.5083 100.046C64.1651 100.015 63.9211 99.7048 63.9516 99.3563C63.9821 99.0077 64.2871 98.7598 64.6303 98.7908C65.5988 98.8915 66.575 98.9535 67.5511 98.9845C67.8943 98.9922 68.1612 99.2866 68.1459 99.6351C68.1383 99.9837 67.8637 100.247 67.5358 100.247ZM70.5023 100.247C70.1744 100.247 69.8999 99.976 69.8846 99.6429C69.877 99.2943 70.1439 99.0077 70.4795 98.9922C71.4556 98.9612 72.4317 98.8915 73.4002 98.7986C73.7434 98.7598 74.0408 99.0155 74.0789 99.364C74.1094 99.7048 73.8654 100.015 73.5222 100.053C72.5308 100.154 71.5166 100.224 70.5176 100.255C70.5176 100.247 70.51 100.247 70.5023 100.247ZM61.6257 99.6584C61.5952 99.6584 61.5571 99.6584 61.5266 99.6506C60.5428 99.4802 59.5514 99.2788 58.5753 99.0464C58.2397 98.969 58.0415 98.6282 58.1177 98.2951C58.194 97.9543 58.5295 97.7451 58.8575 97.8303C59.8031 98.055 60.7716 98.2564 61.7248 98.419C62.0604 98.4732 62.2891 98.7986 62.2358 99.1394C62.1824 99.4415 61.9231 99.6584 61.6257 99.6584ZM76.4049 99.6506C76.1074 99.6506 75.8482 99.4337 75.7948 99.1239C75.7414 98.7831 75.9626 98.4578 76.2981 98.4035C77.259 98.2409 78.2198 98.0395 79.1655 97.8148C79.501 97.7374 79.8289 97.9465 79.9128 98.2796C79.9891 98.6127 79.7832 98.9535 79.4552 99.0387C78.4791 99.2711 77.4877 99.4802 76.504 99.6429C76.4735 99.6429 76.443 99.6506 76.4049 99.6506ZM55.8528 98.2719C55.7918 98.2719 55.7308 98.2641 55.6698 98.2409C54.7165 97.9388 53.7557 97.6057 52.8177 97.2417C52.4974 97.1177 52.3372 96.7537 52.4669 96.4283C52.5889 96.103 52.9473 95.9403 53.2676 96.0643C54.1751 96.4206 55.1131 96.7459 56.0358 97.0403C56.3637 97.141 56.5468 97.4973 56.44 97.8226C56.3561 98.0937 56.1121 98.2719 55.8528 98.2719ZM82.1854 98.2564C81.9185 98.2564 81.6744 98.086 81.5982 97.8148C81.499 97.4818 81.682 97.1332 82.0023 97.0325C82.9327 96.7382 83.8631 96.4128 84.7706 96.0565C85.0909 95.9326 85.4493 96.0953 85.5713 96.4128C85.6933 96.7382 85.5332 97.1022 85.2205 97.2262C84.2901 97.5902 83.3293 97.931 82.376 98.2331C82.3074 98.2409 82.2464 98.2564 82.1854 98.2564ZM50.3011 96.103C50.2172 96.103 50.1257 96.0875 50.0418 96.041C49.1343 95.615 48.2344 95.1503 47.3498 94.6623C47.0524 94.4919 46.938 94.1123 47.1058 93.8102C47.2736 93.5081 47.6472 93.392 47.9446 93.5624C48.7987 94.0349 49.6834 94.4919 50.5604 94.9024C50.873 95.0496 51.0027 95.4214 50.8578 95.739C50.7586 95.9636 50.5375 96.103 50.3011 96.103ZM87.7218 96.0875C87.4854 96.0875 87.2643 95.9558 87.1651 95.7234C87.0202 95.4059 87.1575 95.0341 87.4625 94.8869C88.3395 94.4686 89.2165 94.0194 90.0706 93.5469C90.3681 93.3764 90.7417 93.4926 90.9095 93.7947C91.0773 94.0968 90.9629 94.4764 90.6655 94.6468C89.7885 95.1348 88.8886 95.5995 87.9811 96.0256C87.8972 96.0643 87.8057 96.0875 87.7218 96.0875ZM92.9151 93.1828C92.7092 93.1828 92.511 93.0821 92.3966 92.8962C92.2135 92.6019 92.2974 92.2146 92.5872 92.0287C93.4032 91.4942 94.2192 90.9288 94.997 90.3401C95.2716 90.1309 95.6605 90.1929 95.8588 90.4717C96.0647 90.7506 96.0037 91.1456 95.7291 91.347C94.9284 91.9512 94.0895 92.5322 93.2507 93.0821C93.1439 93.1518 93.0295 93.1828 92.9151 93.1828ZM97.689 89.6042C97.5136 89.6042 97.3382 89.5268 97.2162 89.3796C96.995 89.1162 97.0256 88.7212 97.2925 88.4966C98.0322 87.8614 98.7643 87.1875 99.4659 86.4981C99.7099 86.258 100.099 86.2657 100.343 86.5136C100.579 86.7615 100.572 87.1565 100.328 87.4044C99.6107 88.1093 98.8558 88.7986 98.0932 89.457C97.9712 89.5577 97.8339 89.6042 97.689 89.6042ZM24.6396 52.1684C24.6243 52.1684 24.6091 52.1684 24.6015 52.1684C24.2583 52.1452 24.0066 51.8508 24.0219 51.5023C24.0905 50.4875 24.1897 49.4651 24.3193 48.4581C24.3651 48.1173 24.6777 47.8772 25.0133 47.9159C25.3488 47.9624 25.5929 48.28 25.5471 48.6208C25.4175 49.5968 25.3259 50.5882 25.2573 51.5797C25.2344 51.9128 24.9599 52.1684 24.6396 52.1684ZM113.338 52.0057C113.017 52.0057 112.743 51.7501 112.72 51.4248C112.651 50.4411 112.552 49.4418 112.422 48.4659C112.377 48.125 112.613 47.8075 112.949 47.761C113.292 47.7145 113.597 47.9546 113.643 48.2955C113.78 49.3024 113.879 50.3249 113.948 51.3396C113.971 51.6881 113.711 51.9825 113.376 52.0057C113.36 52.0057 113.353 52.0057 113.338 52.0057ZM25.4098 46.1886C25.3717 46.1886 25.3259 46.1808 25.2878 46.1731C24.9523 46.1034 24.7387 45.778 24.8074 45.4372C25.0057 44.438 25.2344 43.4388 25.5013 42.4628C25.5929 42.1297 25.9284 41.9283 26.2563 42.0213C26.5842 42.1142 26.7825 42.4551 26.691 42.7881C26.4393 43.7409 26.2106 44.7091 26.0199 45.6851C25.9589 45.9794 25.6996 46.1886 25.4098 46.1886ZM112.537 46.0337C112.247 46.0337 111.995 45.8323 111.934 45.5302C111.736 44.5619 111.507 43.586 111.248 42.641C111.157 42.3079 111.347 41.9593 111.683 41.8664C112.011 41.7734 112.354 41.9671 112.445 42.3079C112.712 43.2839 112.949 44.2831 113.147 45.2823C113.216 45.6231 113.002 45.9562 112.666 46.0259C112.621 46.0259 112.583 46.0337 112.537 46.0337ZM26.9732 40.3714C26.9045 40.3714 26.8359 40.3637 26.7749 40.3404C26.4546 40.2243 26.2792 39.8679 26.3936 39.5426C26.7215 38.5821 27.0875 37.6216 27.4765 36.6844C27.6061 36.3668 27.9722 36.2196 28.2848 36.3513C28.5975 36.483 28.7424 36.8548 28.6128 37.1724C28.2315 38.0864 27.8807 39.0159 27.5604 39.9531C27.4689 40.2088 27.2248 40.3714 26.9732 40.3714ZM110.958 40.2165C110.707 40.2165 110.463 40.0538 110.379 39.7982C110.058 38.8687 109.7 37.9392 109.319 37.0329C109.181 36.7154 109.334 36.3436 109.647 36.2119C109.959 36.0725 110.325 36.2274 110.455 36.545C110.844 37.4745 111.21 38.435 111.545 39.3954C111.66 39.7208 111.492 40.0771 111.164 40.1933C111.096 40.2088 111.027 40.2165 110.958 40.2165ZM29.2839 34.8099C29.1923 34.8099 29.0932 34.7866 29.0093 34.7402C28.7043 34.5853 28.5823 34.2057 28.7348 33.8959C29.1847 32.9896 29.6728 32.0833 30.1837 31.2081C30.3591 30.906 30.7404 30.813 31.0302 30.9912C31.3276 31.1693 31.4191 31.5489 31.2437 31.851C30.748 32.703 30.2752 33.5783 29.8329 34.4613C29.7261 34.686 29.5126 34.8099 29.2839 34.8099ZM108.632 34.6859C108.404 34.6859 108.19 34.562 108.083 34.3451C107.641 33.4698 107.168 32.5946 106.672 31.7425C106.497 31.4482 106.596 31.0609 106.886 30.8827C107.176 30.7046 107.557 30.8053 107.732 31.0996C108.243 31.9749 108.731 32.8734 109.189 33.7719C109.342 34.0818 109.22 34.4613 108.922 34.6162C108.823 34.6627 108.724 34.6859 108.632 34.6859ZM32.3113 29.6201C32.1893 29.6201 32.0673 29.5814 31.9606 29.5117C31.6784 29.3181 31.6098 28.923 31.8004 28.6364C32.3647 27.7999 32.9672 26.9711 33.5849 26.1732C33.7984 25.9021 34.1874 25.8556 34.4543 26.0725C34.7212 26.2894 34.7669 26.6845 34.5534 26.9556C33.9509 27.7302 33.3637 28.5357 32.8147 29.349C32.7003 29.5194 32.5096 29.6201 32.3113 29.6201ZM105.597 29.504C105.399 29.504 105.208 29.411 105.086 29.2329C104.53 28.4195 103.95 27.614 103.34 26.8394C103.126 26.5683 103.172 26.1732 103.439 25.9563C103.706 25.7395 104.095 25.7859 104.308 26.057C104.926 26.8471 105.529 27.6759 106.1 28.5125C106.291 28.7991 106.222 29.1864 105.94 29.3878C105.841 29.473 105.719 29.504 105.597 29.504ZM35.9871 24.8797C35.8422 24.8797 35.6897 24.8254 35.5753 24.717C35.3236 24.4846 35.3007 24.0896 35.5295 23.834C36.2006 23.0826 36.9022 22.339 37.6191 21.6341C37.8631 21.394 38.252 21.4018 38.496 21.6496C38.7324 21.8975 38.7248 22.2925 38.4808 22.5404C37.7792 23.2298 37.1005 23.9502 36.4446 24.6783C36.3226 24.81 36.1549 24.8797 35.9871 24.8797ZM101.906 24.7867C101.738 24.7867 101.571 24.717 101.449 24.5776C100.793 23.8495 100.106 23.1291 99.4049 22.4397C99.1608 22.1996 99.1532 21.8046 99.3896 21.5489C99.626 21.3011 100.015 21.2933 100.267 21.5334C100.983 22.2383 101.693 22.9742 102.364 23.7255C102.593 23.9811 102.577 24.3762 102.318 24.6086C102.204 24.7325 102.051 24.7867 101.906 24.7867ZM40.25 20.6814C40.0746 20.6814 39.8992 20.6039 39.7772 20.4568C39.5561 20.1934 39.5866 19.7984 39.8458 19.5737C40.6084 18.9153 41.4015 18.2802 42.2023 17.676C42.4768 17.4669 42.8657 17.5288 43.064 17.8077C43.2699 18.0865 43.2089 18.4816 42.9344 18.683C42.1565 19.2716 41.3787 19.8913 40.6389 20.5342C40.5322 20.6349 40.3949 20.6814 40.25 20.6814ZM97.628 20.5962C97.4907 20.5962 97.3458 20.5497 97.2314 20.449C96.4917 19.8139 95.7139 19.1942 94.9284 18.6055C94.6539 18.4041 94.5928 18.0091 94.7987 17.7302C94.997 17.4514 95.386 17.3894 95.6605 17.5985C96.4688 18.2027 97.2619 18.8379 98.0246 19.4885C98.2838 19.7132 98.322 20.1082 98.1008 20.3716C97.9788 20.5265 97.811 20.5962 97.628 20.5962ZM45.0239 17.0951C44.818 17.0951 44.6197 16.9944 44.5053 16.8085C44.3223 16.5141 44.4062 16.1268 44.6883 15.9409C45.5272 15.391 46.3966 14.8642 47.2736 14.3763C47.571 14.2058 47.9446 14.322 48.1124 14.6241C48.2802 14.9262 48.1658 15.3058 47.8684 15.4762C47.0143 15.9564 46.1678 16.4676 45.3518 16.9944C45.2527 17.0641 45.1383 17.0951 45.0239 17.0951ZM92.8465 17.0253C92.7321 17.0253 92.6177 16.9944 92.5186 16.9247C91.695 16.3902 90.8485 15.8867 89.9944 15.4065C89.697 15.2438 89.5826 14.8565 89.7503 14.5544C89.9105 14.2523 90.2918 14.1361 90.5892 14.3065C91.4662 14.7945 92.3356 15.3212 93.182 15.8635C93.4718 16.0494 93.5557 16.4367 93.3727 16.731C93.2507 16.9247 93.0524 17.0253 92.8465 17.0253ZM50.2172 14.1904C49.9808 14.1904 49.7596 14.0587 49.6605 13.8263C49.5156 13.5087 49.6529 13.1369 49.9579 12.9897C50.8654 12.5637 51.7958 12.1609 52.7262 11.7891C53.0464 11.6652 53.4049 11.8279 53.5269 12.1454C53.6489 12.4708 53.4887 12.8348 53.1761 12.9588C52.2686 13.3151 51.3687 13.7024 50.4841 14.1206C50.3926 14.1749 50.3087 14.1904 50.2172 14.1904ZM87.6303 14.1284C87.5464 14.1284 87.4549 14.1129 87.371 14.0664C86.4864 13.6481 85.5789 13.2609 84.6714 12.9045C84.3511 12.7806 84.191 12.4165 84.313 12.0912C84.435 11.7659 84.7935 11.6032 85.1137 11.7272C86.0517 12.0912 86.9821 12.494 87.8896 12.92C88.2023 13.0672 88.3319 13.439 88.187 13.7488C88.0879 13.9967 87.8667 14.1284 87.6303 14.1284ZM55.746 12.0138C55.4791 12.0138 55.2427 11.8434 55.1588 11.5722C55.0597 11.2392 55.2427 10.8906 55.563 10.7899C56.5163 10.4878 57.4924 10.2167 58.4685 9.9766C58.8041 9.89914 59.132 10.1005 59.2159 10.4413C59.2921 10.7744 59.0939 11.1152 58.7583 11.2005C57.8127 11.4328 56.8671 11.6962 55.9367 11.9905C55.8757 12.006 55.807 12.0138 55.746 12.0138ZM82.0862 11.9673C82.0252 11.9673 81.9642 11.9595 81.9032 11.9363C80.9728 11.642 80.0196 11.3863 79.074 11.154C78.7384 11.0765 78.5325 10.7357 78.6164 10.4026C78.7003 10.0696 79.0282 9.86041 79.3561 9.93787C80.3246 10.1702 81.3084 10.4413 82.2616 10.7357C82.5895 10.8364 82.7726 11.1849 82.6734 11.518C82.5895 11.7969 82.3455 11.9673 82.0862 11.9673ZM61.5189 10.6118C61.2215 10.6118 60.9622 10.3949 60.9088 10.0928C60.8554 9.75196 61.0766 9.42664 61.4121 9.37242C62.3959 9.20201 63.3949 9.06259 64.3939 8.96189C64.7371 8.92316 65.0345 9.17878 65.0726 9.5196C65.1031 9.86816 64.8591 10.1702 64.5236 10.209C63.5551 10.3097 62.5789 10.4414 61.6181 10.604C61.5876 10.6118 61.5571 10.6118 61.5189 10.6118ZM76.3057 10.5885C76.2752 10.5885 76.2371 10.5885 76.2066 10.5808C75.2457 10.4181 74.2696 10.2864 73.3011 10.1935C72.9579 10.1625 72.7139 9.85266 72.7444 9.51184C72.7749 9.17102 73.0799 8.91541 73.4155 8.9464C74.4145 9.04709 75.4135 9.17877 76.3972 9.34143C76.7328 9.39565 76.9616 9.72099 76.9082 10.0618C76.8624 10.3716 76.6031 10.5885 76.3057 10.5885ZM67.4291 10.0076C67.1011 10.0076 66.8266 9.74422 66.8114 9.4034C66.7961 9.05484 67.063 8.76824 67.4062 8.75275C68.3976 8.71402 69.4271 8.71402 70.4184 8.74501C70.7616 8.75275 71.0285 9.04709 71.0133 9.39566C71.0056 9.73648 70.7311 9.99984 70.3956 9.99984C70.3879 9.99984 70.3803 9.99984 70.3727 9.99984C69.4118 9.96885 68.4052 9.96885 67.4443 10.0076C67.4443 10.0076 67.4367 10.0076 67.4291 10.0076Z" fill="#D7D7D7"/>
<path d="M20.2852 55.3211C20.2775 55.05 20.2775 54.7789 20.2775 54.5C20.2775 27.219 42.1336 5.01933 68.9924 5.01933C95.8511 5.01933 117.707 27.219 117.707 54.5C117.707 55.7393 117.661 56.9632 117.57 58.1716C119.072 58.6286 120.658 59.0623 122.428 59.4264C122.573 57.7997 122.649 56.1499 122.649 54.5C122.649 39.9455 117.067 26.2585 106.932 15.9643C96.7967 5.66998 83.3216 0 68.9924 0C54.6631 0 41.188 5.66998 31.0531 15.9643C21.0249 26.1501 15.4579 39.6666 15.3435 54.0585C17.1432 54.4225 18.76 54.8563 20.2852 55.3211Z" fill="#D7D7D7"/>
<path d="M106.169 86.436C97.2238 97.1641 83.8783 103.98 68.9923 103.98C56.8289 103.98 45.6949 99.4336 37.1538 91.9201C33.5849 91.4321 30.7556 90.6808 28.1552 89.852C29.0779 90.9441 30.0388 92.0053 31.053 93.0355C41.188 103.33 54.6631 109 68.9923 109C83.3216 109 96.7967 103.33 106.932 93.0355C108.518 91.4244 109.982 89.7358 111.339 87.9775C109.715 87.4275 108.037 86.9008 106.169 86.436Z" fill="#D7D7D7"/>
<path d="M135.529 95.0341C124.029 95.0341 118.195 93.0047 112.552 91.045C107.046 89.1317 101.853 87.3269 91.1764 87.3269C80.5 87.3269 75.2991 89.1317 69.8007 91.045C64.1575 93.0047 58.3236 95.0341 46.8236 95.0341C35.3236 95.0341 29.4897 93.0047 23.8465 91.045C18.3405 89.1317 13.1472 87.3269 2.47084 87.3269C1.10578 87.3269 0 86.2038 0 84.8173V52.912C0 51.5255 1.10578 50.4023 2.47084 50.4023C13.9708 50.4023 19.8047 52.4318 25.4479 54.3915C30.9539 56.3047 36.1472 58.1095 46.8236 58.1095C57.5 58.1095 62.7009 56.3047 68.1993 54.3915C73.8425 52.4318 79.6764 50.4023 91.1764 50.4023C102.676 50.4023 108.51 52.4318 114.153 54.3915C119.659 56.3047 124.853 58.1095 135.529 58.1095C136.894 58.1095 138 59.2326 138 60.6191V92.5244C138 93.9032 136.894 95.0341 135.529 95.0341ZM4.92641 82.3386C14.8173 82.6097 20.2089 84.4765 25.4327 86.2967C30.9387 88.21 36.132 90.0147 46.8084 90.0147C57.4847 90.0147 62.6857 88.21 68.184 86.2967C73.8272 84.337 79.6611 82.3076 91.1611 82.3076C102.661 82.3076 108.495 84.337 114.138 86.2967C119.202 88.055 123.999 89.7282 133.051 89.9838V63.0978C123.152 62.8267 117.768 60.96 112.544 59.1397C107.038 57.2265 101.845 55.4217 91.1688 55.4217C80.4924 55.4217 75.2915 57.2265 69.7931 59.1397C64.1499 61.0994 58.316 63.1288 46.816 63.1288C35.316 63.1288 29.4821 61.0994 23.8389 59.1397C18.7752 57.3814 13.9784 55.7083 4.93402 55.4526V82.3386H4.92641Z" fill="#D7D7D7"/>
<path d="M45.9009 43.865L48.9666 42.1687L50.5833 45.1818L40.7458 50.6349L39.1291 47.6218L42.1718 45.9332L38.2749 38.6753L36.3151 41.9131L34.5687 38.6598L37.5886 33.7024L39.7773 32.4863L45.9009 43.865Z" fill="#D7D7D7"/>
<path d="M52.2229 42.6958C50.835 41.5649 49.8131 39.6749 49.142 37.0258C48.4861 34.4232 48.4938 32.2931 49.1801 30.6277C49.8588 28.9701 51.1705 27.8857 53.0999 27.3822C55.0369 26.8787 56.6917 27.1885 58.072 28.3117C59.4523 29.4349 60.4742 31.2939 61.1377 33.9042C61.8088 36.5533 61.8011 38.7067 61.1224 40.3798C60.4437 42.0451 59.1397 43.1296 57.2027 43.633C55.2657 44.1365 53.6032 43.8189 52.2229 42.6958ZM57.6221 38.9158C57.7288 38.056 57.5611 36.7315 57.1112 34.9422C56.6688 33.1993 56.2037 31.9832 55.7003 31.2939C55.197 30.5967 54.5946 30.3489 53.893 30.527C53.1914 30.7129 52.7796 31.2319 52.6728 32.0839C52.5584 32.936 52.7262 34.2373 53.1609 35.9724C53.6108 37.7617 54.0912 39.001 54.5946 39.7059C55.0979 40.403 55.7003 40.6664 56.4096 40.4805C57.1111 40.3023 57.5153 39.7833 57.6221 38.9158Z" fill="#D7D7D7"/>
<path d="M65.6294 39.7908C64.5617 38.3501 64.0203 36.2665 64.0127 33.5322C64.005 30.8444 64.5312 28.784 65.5912 27.3432C66.6513 25.9025 68.1841 25.1821 70.1745 25.1744C72.1725 25.1666 73.7053 25.8792 74.773 27.3122C75.8406 28.7452 76.382 30.8056 76.3897 33.4935C76.3973 36.2277 75.8711 38.3191 74.8111 39.7676C73.7511 41.2161 72.2182 41.9442 70.2278 41.9442C68.2298 41.9519 66.697 41.2316 65.6294 39.7908ZM71.7759 37.4826C72.0886 36.677 72.2487 35.3525 72.2411 33.5089C72.2335 31.7119 72.0733 30.4183 71.753 29.6205C71.4327 28.8227 70.9066 28.4276 70.1821 28.4276C69.4576 28.4276 68.9391 28.8304 68.6188 29.6283C68.3061 30.4261 68.1459 31.7274 68.1536 33.5244C68.1612 35.368 68.3213 36.6925 68.6416 37.4981C68.9619 38.3036 69.4805 38.7064 70.2126 38.7064C70.9447 38.6909 71.4632 38.2881 71.7759 37.4826Z" fill="#D7D7D7"/>
<path d="M80.767 33.9583C80.3018 32.8893 80.3171 31.5803 80.8128 30.0311C81.3008 28.5129 82.0482 27.4672 83.0396 26.894C84.0386 26.3208 85.1748 26.2434 86.456 26.6694C87.7372 27.0954 88.6065 27.839 89.0717 28.9079C89.5369 29.9769 89.5293 31.2704 89.0336 32.7886C88.5379 34.3378 87.7829 35.399 86.7915 35.9722C85.7925 36.5454 84.6563 36.6228 83.3751 36.1968C82.1092 35.7785 81.2322 35.0272 80.767 33.9583ZM84.2978 43.5167L81.0187 42.4245L94.9742 29.8065L98.2305 30.8909L84.2978 43.5167ZM85.0681 33.5012C85.3197 33.2069 85.5943 32.6182 85.8764 31.7429C86.1433 30.9141 86.2577 30.2867 86.212 29.8762C86.1662 29.4657 85.9908 29.21 85.6705 29.1016C85.3579 28.9932 85.0604 29.0938 84.7935 29.4037C84.5266 29.7135 84.2597 30.279 83.9928 31.1155C83.7183 31.9753 83.5963 32.6105 83.6344 33.0055C83.6725 33.4083 83.8479 33.6562 84.1682 33.7646C84.5114 33.8885 84.8164 33.7956 85.0681 33.5012ZM90.2309 44.2913C89.7809 43.2301 89.8038 41.921 90.2995 40.3718C90.7876 38.8536 91.5273 37.808 92.511 37.227C93.4948 36.6461 94.6234 36.5764 95.9046 36.9946C97.201 37.4284 98.0704 38.172 98.5279 39.2255C98.9855 40.2789 98.9626 41.5802 98.4669 43.1061C97.9636 44.6553 97.2239 45.7165 96.2478 46.2974C95.264 46.8784 94.1277 46.9481 92.8313 46.5221C91.5425 46.096 90.6808 45.3525 90.2309 44.2913ZM94.5014 43.811C94.7683 43.5089 95.0352 42.928 95.3174 42.0682C95.5843 41.2394 95.6987 40.612 95.653 40.2014C95.6072 39.7909 95.4318 39.5353 95.1115 39.4268C94.7988 39.3184 94.5014 39.4269 94.2345 39.7289C93.9676 40.0388 93.7007 40.6042 93.4338 41.4408C93.1593 42.3006 93.0372 42.9357 93.0754 43.3308C93.1135 43.7336 93.2889 43.9814 93.6092 44.0899C93.9371 44.2061 94.2345 44.1054 94.5014 43.811Z" fill="#D7D7D7"/>
<path d="M22.428 70.9829L21.2917 76.0487C20.7045 76.1726 20.0716 76.2269 19.3853 76.2036C18.6989 76.1881 18.0126 76.0952 17.3186 75.9325C16.2357 75.6846 15.3435 75.2586 14.6419 74.6544C13.9403 74.058 13.4598 73.3144 13.2082 72.4314C12.9565 71.5483 12.9489 70.5801 13.1853 69.5112C13.4217 68.4732 13.8335 67.6057 14.4436 66.924C15.0461 66.2424 15.7858 65.7854 16.6628 65.5375C17.5398 65.2974 18.5006 65.2974 19.5454 65.5375C20.2622 65.7002 20.9181 65.9558 21.5129 66.2889C22.1077 66.6219 22.5729 67.0092 22.8932 67.4275L21.6425 69.1239C21.2536 68.7133 20.8647 68.3957 20.4681 68.1556C20.0716 67.9232 19.6369 67.7451 19.1488 67.6367C18.2642 67.4353 17.5474 67.5359 16.9983 67.9387C16.4492 68.3415 16.0603 69.0696 15.8315 70.1076C15.5875 71.1843 15.6333 72.0363 15.9688 72.6637C16.3043 73.2912 16.9449 73.7094 17.8829 73.9263C18.3176 74.027 18.7676 74.0812 19.2251 74.089L19.6445 72.2145L17.9134 71.8117L18.3176 70.0069L22.428 70.9829Z" fill="#D7D7D7"/>
<path d="M23.877 77.846L27.0646 68.001L29.627 68.8608L27.118 76.5989L31.2132 77.9699L30.5345 80.069L23.877 77.846Z" fill="#D7D7D7"/>
<path d="M35.2167 80.108C34.538 79.2637 34.2864 78.1095 34.4465 76.6455L35.1023 70.689L37.7104 70.9833L37.0393 77.0406C36.9554 77.7842 37.0546 78.3729 37.3444 78.8066C37.6265 79.2404 38.0765 79.4883 38.6789 79.558C39.2737 79.6277 39.7618 79.4805 40.1279 79.1165C40.4939 78.7524 40.7227 78.2024 40.7989 77.4743L41.47 71.4171L44.101 71.7192L43.4452 77.6757C43.285 79.1242 42.7741 80.1854 41.92 80.8593C41.0582 81.5409 39.9067 81.7965 38.4501 81.6261C36.9707 81.4557 35.8954 80.9523 35.2167 80.108Z" fill="#D7D7D7"/>
<path d="M49.4697 81.9047L49.0961 73.7638L46.0609 73.911L45.9618 71.7034L54.7469 71.2852L54.8461 73.4927L51.8109 73.6399L52.1846 81.7808L49.4697 81.9047Z" fill="#D7D7D7"/>
<path d="M58.987 81.0371L56.4705 70.9907L63.5245 69.1704L64.0354 71.1999L59.5209 72.3695L59.9937 74.2595L64.2185 73.1673L64.7294 75.1967L60.5046 76.2889L61.0232 78.3493L65.5378 77.1874L66.0487 79.2168L58.987 81.0371Z" fill="#D7D7D7"/>
<path d="M72.4165 66.0957L74.8492 65.3599L77.7699 75.2901L75.8634 75.871L69.7702 71.5876L71.4327 77.2188L69.0305 77.9469L66.1097 68.0167L67.9934 67.4435L74.0789 71.7037L72.4165 66.0957Z" fill="#D7D7D7"/>
<path d="M85.9449 74.3138L85.7238 63.9498L92.8464 63.7949L92.8922 65.9328L88.4234 66.0335L88.4615 67.9235L92.6482 67.8305L92.6939 69.9529L88.5072 70.0458L88.5988 74.2519L85.9449 74.3138Z" fill="#D7D7D7"/>
<path d="M104.232 75.2045L101.395 74.8792L100.465 71.3006C100.358 70.8978 100.023 70.6654 99.4582 70.5957L98.4897 70.4873L98.0398 74.4919L95.4088 74.1898L96.5603 63.8955L101.273 64.4377C102.501 64.5771 103.386 64.9489 103.942 65.5609C104.499 66.165 104.72 66.9629 104.613 67.9621C104.537 68.6592 104.285 69.2324 103.866 69.6972C103.447 70.1619 102.89 70.464 102.204 70.5957C102.478 70.6887 102.722 70.8513 102.928 71.0914C103.134 71.3316 103.279 71.6336 103.37 72.0054L104.232 75.2045ZM101.647 68.5275C101.921 68.3804 102.082 68.117 102.127 67.7375C102.173 67.3424 102.074 67.0403 101.845 66.8389C101.616 66.6376 101.205 66.4981 100.625 66.4362L98.9473 66.2425L98.7033 68.4578L100.381 68.6515C100.953 68.7134 101.372 68.6747 101.647 68.5275Z" fill="#D7D7D7"/>
<path d="M106.505 75.8319L109.547 65.9404L116.495 68.148L115.877 70.1464L111.431 68.7367L110.859 70.5957L115.015 71.9125L114.398 73.9109L110.241 72.5941L109.616 74.6235L114.062 76.0333L113.444 78.0317L106.505 75.8319Z" fill="#D7D7D7"/>
<path d="M116.403 79.217L118.981 69.1938L126.019 71.0684L125.501 73.0978L120.994 71.8972L120.506 73.7872L124.723 74.9103L124.204 76.9397L119.987 75.8166L119.461 77.8692L123.968 79.0698L123.449 81.0993L116.403 79.217Z" fill="#D7D7D7"/>
</svg>
