<svg width="35" height="35" viewBox="0 0 35 35" fill="none" xmlns="http://www.w3.org/2000/svg">
<path d="M27.0516 24.6952L34.1899 31.8318L31.8316 34.1902L24.6949 27.0518C22.0395 29.1805 18.7366 30.3383 15.3333 30.3335C7.05325 30.3335 0.333252 23.6135 0.333252 15.3335C0.333252 7.0535 7.05325 0.333496 15.3333 0.333496C23.6133 0.333496 30.3333 7.0535 30.3333 15.3335C30.3381 18.7368 29.1803 22.0397 27.0516 24.6952ZM23.7083 23.4585C25.8234 21.2833 27.0047 18.3675 26.9999 15.3335C26.9999 8.88683 21.7783 3.66683 15.3333 3.66683C8.88659 3.66683 3.66659 8.88683 3.66659 15.3335C3.66659 21.7785 8.88659 27.0002 15.3333 27.0002C18.3673 27.0049 21.2831 25.8237 23.4583 23.7085L23.7083 23.4585Z" fill="white"/>
</svg>
