<svg width="60" height="60" viewBox="0 0 60 60" fill="none" xmlns="http://www.w3.org/2000/svg">
<g filter="url(#filter0_d_152_793)">
<rect x="10" y="9" width="40" height="40" fill="white"/>
</g>
<path d="M31.3099 37.4002C29.9876 37.6067 28.6352 37.4981 27.3628 37.0832C26.0904 36.6683 24.934 35.9588 23.9877 35.0124C23.0413 34.0661 22.3318 32.9096 21.9169 31.6372C21.502 30.3648 21.3934 29.0125 21.5999 27.6902C21.0786 26.6987 20.8882 25.5664 21.0563 24.459C21.2245 23.3515 21.7424 22.3268 22.5345 21.5348C23.3266 20.7427 24.3513 20.2247 25.4587 20.0566C26.5662 19.8884 27.6984 20.0789 28.6899 20.6002C30.0122 20.3936 31.3646 20.5022 32.637 20.9171C33.9094 21.3321 35.0658 22.0416 36.0122 22.9879C36.9585 23.9343 37.668 25.0907 38.0829 26.3631C38.4979 27.6355 38.6065 28.9879 38.3999 30.3102C38.9212 31.3016 39.1117 32.4339 38.9435 33.5413C38.7754 34.6488 38.2574 35.6735 37.4653 36.4655C36.6732 37.2576 35.6486 37.7756 34.5411 37.9437C33.4336 38.1119 32.3014 37.9214 31.3099 37.4002ZM30.0519 34.1562H30.0119C32.8839 34.1562 34.3149 32.7702 34.3149 30.9132C34.3149 29.7152 33.7639 28.4422 31.5889 27.9552L29.6059 27.5152C28.8509 27.3432 27.9839 27.1152 27.9839 26.4002C27.9839 25.6852 28.6039 25.1872 29.7079 25.1872C31.9379 25.1872 31.7349 26.7152 32.8389 26.7152C33.4149 26.7152 33.9319 26.3732 33.9319 25.7852C33.9319 24.4152 31.7349 23.3852 29.8759 23.3852C27.8549 23.3852 25.7029 24.2442 25.7029 26.5292C25.7029 27.6272 26.0969 28.7992 28.2629 29.3422L30.9519 30.0132C31.7679 30.2152 31.9699 30.6722 31.9699 31.0852C31.9699 31.7722 31.2859 32.4432 30.0519 32.4432C27.6349 32.4432 27.9739 30.5862 26.6779 30.5862C26.0979 30.5862 25.6749 30.9842 25.6749 31.5572C25.6749 32.6712 27.0269 34.1552 30.0519 34.1552V34.1562Z" fill="#FF5300"/>
<defs>
<filter id="filter0_d_152_793" x="0" y="0" width="60" height="60" filterUnits="userSpaceOnUse" color-interpolation-filters="sRGB">
<feFlood flood-opacity="0" result="BackgroundImageFix"/>
<feColorMatrix in="SourceAlpha" type="matrix" values="0 0 0 0 0 0 0 0 0 0 0 0 0 0 0 0 0 0 127 0" result="hardAlpha"/>
<feOffset dy="1"/>
<feGaussianBlur stdDeviation="5"/>
<feColorMatrix type="matrix" values="0 0 0 0 0 0 0 0 0 0 0 0 0 0 0 0 0 0 0.1 0"/>
<feBlend mode="normal" in2="BackgroundImageFix" result="effect1_dropShadow_152_793"/>
<feBlend mode="normal" in="SourceGraphic" in2="effect1_dropShadow_152_793" result="shape"/>
</filter>
</defs>
</svg>
