<svg width="60" height="60" viewBox="0 0 60 60" fill="none" xmlns="http://www.w3.org/2000/svg">
<g filter="url(#filter0_d_152_792)">
<rect x="10" y="9" width="40" height="40" fill="white"/>
</g>
<path d="M40.1621 22.6559C39.3986 22.9936 38.589 23.2154 37.7601 23.3139C38.6338 22.7914 39.2878 21.9689 39.6001 20.9999C38.7801 21.4879 37.8811 21.8299 36.9441 22.0149C36.3147 21.3415 35.4804 20.8949 34.571 20.7445C33.6616 20.5941 32.728 20.7484 31.9153 21.1834C31.1026 21.6183 30.4564 22.3096 30.0772 23.1497C29.6979 23.9898 29.6068 24.9317 29.8181 25.8289C28.1552 25.7456 26.5284 25.3134 25.0433 24.5606C23.5583 23.8077 22.2482 22.751 21.1981 21.4589C20.8263 22.0974 20.631 22.8232 20.6321 23.5619C20.6321 25.0119 21.3701 26.2929 22.4921 27.0429C21.8281 27.022 21.1787 26.8427 20.5981 26.5199V26.5719C20.5983 27.5376 20.9324 28.4735 21.5439 29.221C22.1554 29.9684 23.0065 30.4814 23.9531 30.6729C23.3367 30.84 22.6904 30.8646 22.0631 30.7449C22.3299 31.5762 22.8501 32.3031 23.5506 32.824C24.2512 33.3449 25.0972 33.6337 25.9701 33.6499C25.1025 34.3313 24.1092 34.8349 23.0469 35.1321C21.9846 35.4293 20.8742 35.5142 19.7791 35.3819C21.6908 36.6114 23.9161 37.264 26.1891 37.2619C33.8821 37.2619 38.0891 30.8889 38.0891 25.3619C38.0891 25.1819 38.0841 24.9999 38.0761 24.8219C38.8949 24.2301 39.6017 23.4969 40.1631 22.6569L40.1621 22.6559Z" fill="#FF5300"/>
<defs>
<filter id="filter0_d_152_792" x="0" y="0" width="60" height="60" filterUnits="userSpaceOnUse" color-interpolation-filters="sRGB">
<feFlood flood-opacity="0" result="BackgroundImageFix"/>
<feColorMatrix in="SourceAlpha" type="matrix" values="0 0 0 0 0 0 0 0 0 0 0 0 0 0 0 0 0 0 127 0" result="hardAlpha"/>
<feOffset dy="1"/>
<feGaussianBlur stdDeviation="5"/>
<feColorMatrix type="matrix" values="0 0 0 0 0 0 0 0 0 0 0 0 0 0 0 0 0 0 0.1 0"/>
<feBlend mode="normal" in2="BackgroundImageFix" result="effect1_dropShadow_152_792"/>
<feBlend mode="normal" in="SourceGraphic" in2="effect1_dropShadow_152_792" result="shape"/>
</filter>
</defs>
</svg>
